<svg xmlns="http://www.w3.org/2000/svg" viewBox="0 0 880 530" width="880pt" height="530pt"><defs><marker orient="auto" overflow="visible" id="a" viewBox="-1 -5 10 10" markerWidth="10" markerHeight="10" color="#616161"><path d="M8 0H0m4-4l4 4-4 4" fill="none" stroke="currentColor"/></marker></defs><g fill="none"><title>Canvas 1</title><title>Layer 1</title><path fill="#e2f3ec" d="M17.5 25h185v480h-185z"/><path stroke="#fff" stroke-linecap="round" stroke-linejoin="round" stroke-width="2" d="M17.5 25h185v480h-185z"/><path fill="#fff" d="M42 221.5h136v87H42z"/><path stroke="#dfdfdf" stroke-linecap="round" stroke-linejoin="round" d="M42 221.5h136v87H42z"/><path fill="#dfdfdf" d="M58 269.5h104v1H58z"/><path d="M77.796 287.58l-4.117-7.16c-.33-.572-.929-.92-1.544-.92H63.9c-.66 0-1.236.387-1.544.92l-4.117 7.145a1.796 1.796 0 0 0 0 1.79l4.117 7.192c.33.572.928.953 1.544.953h8.234c.66 0 1.236-.416 1.544-.949l4.118-7.16a1.836 1.836 0 0 0 0-1.811" fill="#4285f4"/><path d="M71.93 285.501l-6.098-.134-.475 5.403.354 1.22 5.51 5.51h.913c.66 0 1.236-.416 1.544-.949l3.397-5.906z" fill="#000" fill-opacity=".07"/><path d="M70.365 290.783a.17.17 0 0 1-.026.087c-.029.042-.057.085-.088.127a4.362 4.362 0 0 1-2.234 1.601 4.362 4.362 0 0 1-2.233-1.601l-.088-.127a.156.156 0 0 1-.026-.087v-.696c0-.96 1.564-1.443 2.347-1.443.784 0 2.348.483 2.348 1.443zm-2.348-5.179a1.252 1.252 0 1 1 .002 2.505 1.252 1.252 0 0 1-.002-2.505zm0-1.842l-3.913 1.74v2.608c0 2.413 1.67 4.67 3.913 5.217 2.244-.547 3.914-2.804 3.914-5.217v-2.61z" fill="#fff"/><path fill="#fef8e1" d="M213.5 25h373v480h-373z"/><path stroke="#fff" stroke-linecap="round" stroke-linejoin="round" stroke-width="2" d="M213.5 25h373v480h-373z"/><path fill="#fff" d="M237.5 221.5h136v87h-136z"/><path stroke="#dfdfdf" stroke-linecap="round" stroke-linejoin="round" d="M237.5 221.5h136v87h-136z"/><path fill="#dfdfdf" d="M253.5 269.5h104v1h-104z"/><path d="M273.296 287.58l-4.117-7.16c-.33-.572-.929-.92-1.544-.92H259.4c-.66 0-1.236.387-1.544.92l-4.117 7.145a1.796 1.796 0 0 0 0 1.79l4.117 7.192c.33.572.928.953 1.544.953h8.234c.66 0 1.236-.416 1.544-.949l4.118-7.16a1.836 1.836 0 0 0 0-1.811" fill="#4285f4"/><path d="M265.768 284.396l-.675.996-1.001-1-.801 1.067-1.068-1.068-1.093 1.618-1.721 1.11 1.173 1.173-1.173.696.868.868-.868.808 6.835 6.836h1.39c.66 0 1.236-.416 1.545-.949L272.37 291z" fill="#000" fill-opacity=".07"/><path d="M265.768 284.396h-.88v.974h-.796v-.979h-.888v.979h-.981v-.979h-.881v1a1.08 1.08 0 0 0-.849.849h-1.084v.88h1.064v.989h-1.064v.88h1.064v.796h-1.064v.88h1.084c.086.428.42.763.849.848v1.096h.88v-1.074h.982v1.072h.88v-1.072h.797v1.072h.88v-1.096a1.08 1.08 0 0 0 .848-.848h1.01v-.877h-.98v-.796h.987v-.881h-.988v-.988h.988v-.881h-1.01a1.08 1.08 0 0 0-.848-.849zm-.188 1.828h.022c.09.018.159.088.177.177v4.1a.227.227 0 0 1-.177.176h-4.094a.227.227 0 0 1-.182-.175v-4.096a.227.227 0 0 1 .177-.177h4.077z" fill="#fff"/><path d="M263.86 286.648v1.486h.814l-1.451 2.016v-1.503h-.858zM420.5 221.5h136v87h-136z" fill="#fff"/><path stroke="#dfdfdf" stroke-linecap="round" stroke-linejoin="round" d="M420.5 221.5h136v87h-136z"/><path fill="#dfdfdf" d="M436.5 269.5h104v1h-104z"/><path d="M456.296 287.58l-4.117-7.16c-.33-.572-.929-.92-1.544-.92H442.4c-.66 0-1.236.387-1.544.92l-4.117 7.145a1.796 1.796 0 0 0 0 1.79l4.117 7.192c.33.572.928.953 1.544.953h8.234c.66 0 1.236-.416 1.544-.949l4.118-7.16a1.836 1.836 0 0 0 0-1.811" fill="#4285f4"/><path d="M448.768 284.396l-.675.996-1.001-1-.801 1.067-1.068-1.068-1.093 1.618-1.721 1.11 1.173 1.173-1.173.696.868.868-.868.808 6.835 6.836h1.39c.66 0 1.236-.416 1.544-.949l3.193-5.552z" fill="#000" fill-opacity=".07"/><path d="M448.768 284.396h-.88v.974h-.796v-.979h-.888v.979h-.981v-.979h-.881v1a1.08 1.08 0 0 0-.849.849h-1.084v.88h1.064v.989h-1.064v.88h1.064v.796h-1.064v.88h1.084c.086.428.42.763.849.848v1.096h.88v-1.074h.982v1.072h.88v-1.072h.797v1.072h.88v-1.096a1.08 1.08 0 0 0 .848-.848h1.01v-.877h-.98v-.796h.987v-.881h-.988v-.988h.988v-.881h-1.01a1.08 1.08 0 0 0-.848-.849zm-.188 1.828h.022c.09.018.159.088.177.177v4.1a.227.227 0 0 1-.177.176h-4.094a.227.227 0 0 1-.182-.175v-4.096a.227.227 0 0 1 .177-.177h4.077z" fill="#fff"/><path d="M446.86 286.648v1.486h.814l-1.451 2.016v-1.503h-.858zM420.5 89h136v87h-136z" fill="#fff"/><path stroke="#dfdfdf" stroke-linecap="round" stroke-linejoin="round" d="M420.5 89h136v87h-136z"/><path fill="#dfdfdf" d="M436.5 137h104v1h-104z"/><path d="M456.296 155.08l-4.117-7.16c-.33-.572-.929-.92-1.544-.92H442.4c-.66 0-1.236.387-1.544.92l-4.117 7.145a1.796 1.796 0 0 0 0 1.79l4.117 7.192c.33.572.928.953 1.544.953h8.234c.66 0 1.236-.416 1.544-.949l4.118-7.16a1.836 1.836 0 0 0 0-1.811" fill="#4285f4"/><path d="M448.768 151.896l-.675.996-1.001-1-.801 1.067-1.068-1.068-1.093 1.618-1.721 1.11 1.173 1.173-1.173.696.868.868-.868.809 6.835 6.835h1.39c.66 0 1.236-.416 1.544-.949l3.193-5.552z" fill="#000" fill-opacity=".07"/><path d="M448.768 151.896h-.88v.974h-.796v-.979h-.888v.979h-.981v-.979h-.881v1a1.08 1.08 0 0 0-.849.849h-1.084v.88h1.064v.989h-1.064v.88h1.064v.796h-1.064v.88h1.084c.086.428.42.763.849.848v1.095h.88v-1.073h.982v1.072h.88v-1.072h.797v1.072h.88v-1.096a1.08 1.08 0 0 0 .848-.848h1.01v-.877h-.98v-.796h.987v-.881h-.988v-.988h.988v-.881h-1.01a1.08 1.08 0 0 0-.848-.849zm-.188 1.828h.022c.09.018.159.088.177.177v4.1a.227.227 0 0 1-.177.176h-4.094a.227.227 0 0 1-.182-.175v-4.096a.227.227 0 0 1 .177-.177h4.077z" fill="#fff"/><path d="M446.86 154.148v1.486h.814l-1.451 2.016v-1.503h-.858zM420.5 354h136v87h-136z" fill="#fff"/><path stroke="#dfdfdf" stroke-linecap="round" stroke-linejoin="round" d="M420.5 354h136v87h-136z"/><path fill="#dfdfdf" d="M436.5 402h104v1h-104z"/><path d="M456.296 420.08l-4.117-7.16c-.33-.572-.929-.92-1.544-.92H442.4c-.66 0-1.236.387-1.544.92l-4.117 7.145a1.796 1.796 0 0 0 0 1.79l4.117 7.192c.33.572.928.953 1.544.953h8.234c.66 0 1.236-.416 1.544-.949l4.118-7.16a1.836 1.836 0 0 0 0-1.811" fill="#4285f4"/><path d="M448.768 416.896l-.675.996-1.001-1-.801 1.067-1.068-1.068-1.093 1.618-1.721 1.11 1.173 1.173-1.173.696.868.868-.868.808 6.835 6.836h1.39c.66 0 1.236-.416 1.544-.949l3.193-5.552z" fill="#000" fill-opacity=".07"/><path d="M448.768 416.896h-.88v.974h-.796v-.979h-.888v.979h-.981v-.979h-.881v1a1.08 1.08 0 0 0-.849.849h-1.084v.88h1.064v.989h-1.064v.88h1.064v.796h-1.064v.88h1.084c.086.428.42.763.849.848v1.096h.88v-1.074h.982v1.072h.88v-1.072h.797v1.072h.88v-1.096a1.08 1.08 0 0 0 .848-.848h1.01v-.877h-.98v-.796h.987v-.881h-.988v-.988h.988v-.881h-1.01a1.08 1.08 0 0 0-.848-.849zm-.188 1.828h.022c.09.018.159.088.177.177v4.1a.227.227 0 0 1-.177.176h-4.094a.227.227 0 0 1-.182-.175v-4.096a.227.227 0 0 1 .177-.177h4.077z" fill="#fff"/><path d="M446.86 419.148v1.486h.814l-1.451 2.016v-1.503h-.858z" fill="#fff"/><path fill="#e1f6fe" d="M597.5 25h265v480h-265z"/><path stroke="#fff" stroke-linecap="round" stroke-linejoin="round" stroke-width="2" d="M597.5 25h265v480h-265z"/><path fill="#fff" d="M662 89h136v87H662z"/><path stroke="#dfdfdf" stroke-linecap="round" stroke-linejoin="round" d="M662 89h136v87H662z"/><path fill="#dfdfdf" d="M678 137h104v1H678z"/><path d="M697.796 155.08l-4.117-7.16c-.33-.572-.929-.92-1.544-.92H683.9c-.66 0-1.236.387-1.544.92l-4.117 7.145a1.796 1.796 0 0 0 0 1.79l4.117 7.192c.33.572.928.953 1.544.953h8.234c.66 0 1.236-.416 1.544-.949l4.118-7.16a1.836 1.836 0 0 0 0-1.811" fill="#4285f4"/><path d="M691.38 153.895l-5.662.52-1.097 1.094.933.933-.923 1.64 6.918 6.918h.585c.66 0 1.236-.416 1.544-.949l2.87-4.99z" fill="#000" fill-opacity=".07"/><path d="M690.253 155.1a.389.389 0 1 1 .002-.778.389.389 0 0 1-.002.777m1.004-1.248h-6.485a.19.19 0 0 0-.19.19v1.34c0 .105.086.19.19.19h6.485a.19.19 0 0 0 .19-.19v-1.34a.19.19 0 0 0-.19-.19m-1.004 3.825a.387.387 0 1 1-.001-.776.387.387 0 0 1 .001.776m1.004-1.248h-6.485a.19.19 0 0 0-.19.19v1.341c0 .104.086.19.19.19h6.485a.19.19 0 0 0 .19-.19v-1.34a.19.19 0 0 0-.19-.19M662 221.5h136v87H662z" fill="#fff"/><path stroke="#dfdfdf" stroke-linecap="round" stroke-linejoin="round" d="M662 221.5h136v87H662z"/><path fill="#dfdfdf" d="M678 269.5h104v1H678z"/><path d="M697.796 287.58l-4.117-7.16c-.33-.572-.929-.92-1.544-.92H683.9c-.66 0-1.236.387-1.544.92l-4.117 7.145a1.796 1.796 0 0 0 0 1.79l4.117 7.192c.33.572.928.953 1.544.953h8.234c.66 0 1.236-.416 1.544-.949l4.118-7.16a1.836 1.836 0 0 0 0-1.811" fill="#4285f4"/><path d="M691.38 286.395l-5.662.52-1.097 1.094.933.933-.923 1.64 6.918 6.918h.585c.66 0 1.236-.416 1.544-.949l2.87-4.99z" fill="#000" fill-opacity=".07"/><path d="M690.253 287.6a.389.389 0 1 1 .002-.778.389.389 0 0 1-.002.777m1.004-1.248h-6.485a.19.19 0 0 0-.19.19v1.34c0 .105.086.19.19.19h6.485a.19.19 0 0 0 .19-.19v-1.34a.19.19 0 0 0-.19-.19m-1.004 3.825a.387.387 0 1 1-.001-.776.387.387 0 0 1 .001.776m1.004-1.248h-6.485a.19.19 0 0 0-.19.19v1.341c0 .104.086.19.19.19h6.485a.19.19 0 0 0 .19-.19v-1.34a.19.19 0 0 0-.19-.19M662 354h136v87H662z" fill="#fff"/><path stroke="#dfdfdf" stroke-linecap="round" stroke-linejoin="round" d="M662 354h136v87H662z"/><path fill="#dfdfdf" d="M678 402h104v1H678z"/><path d="M697.796 420.08l-4.117-7.16c-.33-.572-.929-.92-1.544-.92H683.9c-.66 0-1.236.387-1.544.92l-4.117 7.145a1.796 1.796 0 0 0 0 1.79l4.117 7.192c.33.572.928.953 1.544.953h8.234c.66 0 1.236-.416 1.544-.949l4.118-7.16a1.836 1.836 0 0 0 0-1.811" fill="#4285f4"/><path d="M691.38 418.895l-5.662.52-1.097 1.094.933.933-.923 1.64 6.918 6.918h.585c.66 0 1.236-.416 1.544-.949l2.87-4.99z" fill="#000" fill-opacity=".07"/><path d="M690.253 420.1a.389.389 0 1 1 .002-.778.389.389 0 0 1-.002.777m1.004-1.248h-6.485a.19.19 0 0 0-.19.19v1.34c0 .105.086.19.19.19h6.485a.19.19 0 0 0 .19-.19v-1.34a.19.19 0 0 0-.19-.19m-1.004 3.825a.389.389 0 0 1 0-.775.387.387 0 1 1 0 .775m1.004-1.248h-6.485a.19.19 0 0 0-.19.19v1.341c0 .104.086.19.19.19h6.485a.19.19 0 0 0 .19-.19v-1.34a.19.19 0 0 0-.19-.19" fill="#fff"/><path d="M178 265h49.6m166.9 4h16.1" marker-end="url(#a)" stroke="#616161" stroke-linecap="round" stroke-linejoin="round"/><path d="M394.5 211v108m-21-50h21" stroke="#616161" stroke-linecap="round" stroke-linejoin="round"/><path d="M394.5 211v-78.64h16.1M394.5 319v78.43h16.1" marker-end="url(#a)" stroke="#616161" stroke-linecap="round" stroke-linejoin="round"/><path d="M623.75 211v108m-67.25 78.5h67.25V319v7-7m-67.25-54h67.25" stroke="#616161" stroke-linecap="round" stroke-linejoin="round"/><path d="M623.75 211v-78.377h28.35" marker-end="url(#a)" stroke="#616161" stroke-linecap="round" stroke-linejoin="round"/><path d="M556.5 132.563l60.25.062h7" stroke="#616161" stroke-linecap="round" stroke-linejoin="round"/><path d="M730 176v35.6m0 96.9v35.6" marker-end="url(#a)" stroke="#616161" stroke-linecap="round" stroke-linejoin="round"/><path d="M704.751 46.744c-.088.752-.365 1.332-.833 1.74-.467.41-1.088.614-1.862.614-.84 0-1.513-.301-2.02-.904-.506-.602-.759-1.408-.759-2.417v-.683c0-.661.118-1.242.354-1.743.236-.502.57-.887 1.004-1.155.433-.269.934-.403 1.504-.403.755 0 1.36.21 1.816.632.456.422.721 1.005.796 1.75h-.942c-.082-.566-.258-.976-.53-1.23s-.652-.38-1.14-.38c-.6 0-1.069.22-1.409.664-.34.442-.51 1.072-.51 1.89v.688c0 .771.16 1.385.483 1.84.322.456.773.684 1.353.684.52 0 .92-.118 1.198-.354.279-.236.463-.647.555-1.233zm1.216-5.244h.903V49h-.903zm2.109 4.81c0-.518.102-.983.305-1.397.204-.413.487-.732.85-.957a2.313 2.313 0 0 1 1.243-.337c.719 0 1.3.25 1.745.747.445.498.667 1.16.667 1.988v.063c0 .514-.099.976-.296 1.384a2.243 2.243 0 0 1-.844.955 2.34 2.34 0 0 1-1.263.342c-.716 0-1.296-.25-1.74-.747-.445-.498-.667-1.158-.667-1.978zm.908.107c0 .586.136 1.056.408 1.411.272.355.636.532 1.091.532.46 0 .824-.18 1.094-.54.27-.359.405-.863.405-1.51 0-.58-.137-1.05-.412-1.41a1.312 1.312 0 0 0-1.096-.539 1.3 1.3 0 0 0-1.08.533c-.273.354-.41.862-.41 1.523zm8.296 2.061c-.351.413-.867.62-1.548.62-.563 0-.992-.164-1.286-.491-.295-.327-.444-.811-.447-1.453v-3.437h.903v3.413c0 .8.326 1.201.977 1.201.69 0 1.149-.257 1.377-.771v-3.843h.903V49h-.86zm2.032-2.164c0-.81.192-1.462.576-1.955.384-.493.887-.74 1.508-.74.619 0 1.109.212 1.47.635V41.5h.904V49h-.83l-.045-.566c-.36.442-.864.664-1.508.664-.612 0-1.111-.251-1.497-.752-.386-.502-.578-1.156-.578-1.963zm.903.103c0 .599.123 1.068.37 1.406.248.339.59.508 1.026.508.573 0 .991-.257 1.255-.771v-2.427c-.27-.498-.685-.747-1.245-.747-.443 0-.788.17-1.035.512-.248.342-.371.848-.371 1.519zm9.668-.586c-.804-.231-1.39-.515-1.756-.852a1.628 1.628 0 0 1-.549-1.248c0-.56.224-1.023.672-1.389.447-.366 1.029-.549 1.745-.549.488 0 .924.094 1.306.283.383.189.679.45.889.781.21.332.315.695.315 1.09h-.942c0-.43-.137-.768-.41-1.014-.274-.246-.66-.369-1.158-.369-.462 0-.823.102-1.081.306-.26.203-.389.485-.389.847 0 .29.123.534.369.735.246.2.664.383 1.255.549.59.166 1.053.35 1.387.55.333.2.58.433.742.7.161.267.241.581.241.942 0 .577-.224 1.038-.673 1.385-.45.346-1.05.52-1.802.52-.488 0-.944-.094-1.367-.281-.423-.187-.75-.444-.98-.77a1.877 1.877 0 0 1-.343-1.108h.942c0 .43.159.77.476 1.019.317.249.741.373 1.272.373.495 0 .874-.1 1.138-.303a.983.983 0 0 0 .395-.825c0-.348-.122-.618-.366-.808-.244-.19-.687-.378-1.328-.564zm4.922-3.393v1.279h.986v.698h-.986v3.276c0 .212.044.37.132.476.087.106.237.16.449.16.104 0 .247-.02.43-.06V49a2.618 2.618 0 0 1-.694.098c-.404 0-.708-.122-.913-.367-.205-.244-.308-.59-.308-1.04v-3.276h-.962v-.698h.962v-1.28zm1.66 3.872c0-.518.102-.983.305-1.397.203-.413.487-.732.85-.957a2.313 2.313 0 0 1 1.242-.337c.72 0 1.302.25 1.746.747.444.498.666 1.16.666 1.988v.063c0 .514-.098.976-.295 1.384a2.243 2.243 0 0 1-.845.955 2.34 2.34 0 0 1-1.262.342c-.716 0-1.296-.25-1.74-.747-.445-.498-.667-1.158-.667-1.978zm.908.107c0 .586.136 1.056.408 1.411.272.355.635.532 1.091.532.46 0 .824-.18 1.094-.54.27-.359.405-.863.405-1.51 0-.58-.137-1.05-.413-1.41a1.312 1.312 0 0 0-1.096-.539c-.446 0-.805.178-1.079.533-.273.354-.41.862-.41 1.523zm7.587-1.89a2.706 2.706 0 0 0-.443-.034c-.593 0-.995.252-1.206.757V49h-.904v-5.283h.88l.014.61c.296-.472.716-.708 1.26-.708.175 0 .309.023.4.069zM748.901 49c-.052-.104-.094-.29-.127-.557-.42.437-.92.655-1.504.655-.52 0-.948-.148-1.281-.442a1.43 1.43 0 0 1-.5-1.12c0-.551.208-.978.627-1.283.418-.304 1.006-.456 1.765-.456h.879v-.415c0-.316-.095-.567-.283-.755-.19-.187-.468-.28-.835-.28-.323 0-.593.081-.811.244-.218.163-.327.36-.327.59h-.908c0-.263.093-.518.28-.764.188-.245.442-.44.762-.583.32-.143.673-.215 1.057-.215.609 0 1.086.152 1.431.457.345.304.524.723.537 1.257v2.432c0 .485.062.87.186 1.157V49zm-1.499-.688c.284 0 .552-.074.806-.22a1.33 1.33 0 0 0 .552-.571v-1.084h-.708c-1.107 0-1.66.323-1.66.971 0 .283.094.505.283.664.189.16.431.24.727.24zm3.462-1.998c0-.823.19-1.478.572-1.965.38-.487.885-.73 1.513-.73.645 0 1.148.228 1.509.684l.044-.586h.825v5.156c0 .684-.202 1.222-.608 1.616-.405.394-.95.591-1.633.591-.38 0-.754-.081-1.118-.244-.365-.163-.643-.386-.835-.669l.469-.542c.387.479.86.718 1.42.718.44 0 .782-.124 1.028-.371.246-.248.369-.596.369-1.045v-.454c-.361.416-.855.625-1.48.625-.618 0-1.118-.25-1.501-.747-.382-.498-.574-1.177-.574-2.037zm.909.103c0 .596.121 1.064.366 1.404.244.34.586.51 1.025.51.57 0 .988-.259 1.255-.776v-2.412c-.277-.505-.692-.757-1.245-.757-.44 0-.783.17-1.03.512-.248.342-.371.848-.371 1.519zm7.109 2.681c-.716 0-1.299-.236-1.748-.706-.45-.47-.674-1.1-.674-1.887v-.166c0-.524.1-.992.3-1.404.2-.412.48-.734.84-.967a2.12 2.12 0 0 1 1.17-.349c.686 0 1.22.226 1.601.679.381.452.571 1.1.571 1.943v.376h-3.579c.013.521.165.942.457 1.262.291.321.661.481 1.11.481.32 0 .59-.065.811-.195.222-.13.415-.303.581-.518l.552.43c-.443.68-1.107 1.02-1.992 1.02zm-.112-4.737c-.365 0-.671.133-.918.398-.248.266-.4.637-.46 1.116h2.647v-.068c-.026-.46-.15-.815-.371-1.067-.221-.253-.52-.379-.899-.379zm-46.715 377.383c-.088.752-.366 1.332-.833 1.74-.467.41-1.088.614-1.863.614-.84 0-1.513-.301-2.019-.904-.506-.602-.759-1.408-.759-2.417v-.683c0-.661.118-1.242.354-1.743.236-.502.57-.887 1.004-1.155.432-.269.934-.403 1.503-.403.756 0 1.361.21 1.817.632.456.422.72 1.005.796 1.75h-.943c-.081-.566-.258-.976-.53-1.23-.271-.254-.651-.38-1.14-.38-.599 0-1.068.22-1.408.663-.34.443-.51 1.073-.51 1.89v.689c0 .771.16 1.385.483 1.84.322.456.773.684 1.352.684.521 0 .92-.118 1.2-.354.277-.236.462-.647.553-1.233zm1.215-5.244h.903v7.5h-.903zm2.11 4.81c0-.518.102-.983.305-1.397.204-.413.487-.732.85-.957a2.312 2.312 0 0 1 1.242-.337c.72 0 1.302.25 1.746.747.444.498.666 1.16.666 1.988v.063c0 .514-.098.976-.295 1.384a2.243 2.243 0 0 1-.845.955 2.34 2.34 0 0 1-1.262.342c-.716 0-1.296-.25-1.74-.747-.445-.498-.667-1.158-.667-1.978zm.908.107c0 .586.136 1.056.408 1.411.272.355.635.532 1.091.532.46 0 .824-.18 1.094-.54.27-.359.405-.863.405-1.51 0-.58-.137-1.05-.412-1.41a1.314 1.314 0 0 0-1.097-.539c-.446 0-.805.178-1.079.533-.273.354-.41.862-.41 1.523zm8.296 2.061c-.352.413-.867.62-1.548.62-.563 0-.992-.164-1.286-.491-.295-.327-.444-.811-.447-1.453v-3.437h.903v3.413c0 .8.326 1.201.977 1.201.69 0 1.149-.257 1.377-.771v-3.843h.903V424h-.86zm2.031-2.164c0-.81.192-1.462.576-1.955.385-.493.887-.74 1.51-.74.618 0 1.108.212 1.469.635V416.5h.903v7.5h-.83l-.044-.566c-.361.442-.864.664-1.509.664-.612 0-1.11-.251-1.496-.752-.386-.502-.579-1.156-.579-1.963zm.904.103c0 .599.123 1.068.37 1.406.248.339.59.508 1.026.508.573 0 .991-.257 1.255-.771v-2.427c-.27-.498-.685-.747-1.245-.747-.443 0-.788.17-1.035.512-.248.342-.371.848-.371 1.519zm9.668-.586c-.804-.231-1.39-.515-1.756-.852a1.628 1.628 0 0 1-.55-1.248c0-.56.225-1.022.672-1.389.448-.366 1.03-.549 1.746-.549.488 0 .923.094 1.306.283.382.189.679.45.889.781.21.332.315.695.315 1.09h-.943c0-.43-.136-.768-.41-1.014-.273-.246-.66-.369-1.157-.369-.462 0-.823.102-1.082.306-.259.203-.388.485-.388.847 0 .29.123.534.369.735.245.2.664.383 1.255.549.59.166 1.053.35 1.386.55.334.2.581.433.742.7.162.267.242.581.242.942 0 .577-.224 1.038-.674 1.385-.449.346-1.05.52-1.801.52a3.34 3.34 0 0 1-1.367-.281c-.424-.187-.75-.444-.98-.77a1.877 1.877 0 0 1-.344-1.108h.943c0 .43.158.77.476 1.018.317.25.741.374 1.272.374.494 0 .874-.1 1.137-.303a.983.983 0 0 0 .396-.825c0-.348-.122-.618-.366-.808-.245-.19-.687-.378-1.328-.564zm4.921-3.393v1.279h.987v.698h-.987v3.276c0 .212.044.37.132.477.088.105.238.158.45.158.104 0 .247-.02.43-.058V424a2.618 2.618 0 0 1-.694.098c-.404 0-.708-.122-.913-.367-.205-.244-.308-.59-.308-1.04v-3.276h-.962v-.698h.962v-1.28zm1.661 3.872c0-.518.101-.983.305-1.397.203-.413.486-.732.85-.957a2.313 2.313 0 0 1 1.242-.337c.72 0 1.301.25 1.746.747.444.498.666 1.16.666 1.988v.063c0 .514-.098.976-.295 1.384a2.243 2.243 0 0 1-.845.955 2.34 2.34 0 0 1-1.262.342c-.716 0-1.297-.25-1.74-.747-.445-.498-.667-1.158-.667-1.978zm.908.107c0 .586.136 1.056.408 1.411.271.355.635.532 1.09.532.46 0 .824-.18 1.095-.54.27-.359.405-.863.405-1.51 0-.58-.138-1.05-.413-1.41a1.312 1.312 0 0 0-1.096-.539 1.3 1.3 0 0 0-1.08.533c-.273.354-.41.862-.41 1.523zm7.588-1.89a2.708 2.708 0 0 0-.445-.034c-.592 0-.994.252-1.206.757V424h-.903v-5.283h.879l.014.61c.297-.472.717-.708 1.26-.708.176 0 .31.023.4.068zm3.94 4.473c-.052-.104-.094-.29-.127-.557-.42.437-.921.655-1.504.655-.52 0-.948-.148-1.281-.442a1.43 1.43 0 0 1-.501-1.12c0-.551.21-.978.627-1.283.419-.304 1.007-.456 1.766-.456h.879v-.415c0-.316-.095-.567-.284-.755-.188-.187-.467-.28-.835-.28-.322 0-.592.081-.81.244-.218.163-.327.36-.327.59h-.909c0-.263.094-.518.281-.763a1.92 1.92 0 0 1 .762-.584c.32-.143.673-.215 1.057-.215.609 0 1.086.152 1.43.457.346.304.525.723.538 1.257v2.432c0 .485.062.87.185 1.157V424zm-1.499-.688c.283 0 .552-.074.806-.22a1.33 1.33 0 0 0 .552-.571v-1.084h-.708c-1.107 0-1.66.323-1.66.971 0 .283.094.505.283.664.188.16.43.24.727.24zm3.462-1.998c0-.823.19-1.478.571-1.965.381-.487.886-.73 1.514-.73.644 0 1.147.228 1.509.684l.044-.586h.825v5.156c0 .684-.203 1.222-.608 1.616-.405.394-.95.591-1.633.591-.381 0-.754-.081-1.119-.244-.364-.163-.642-.386-.834-.669l.468-.542c.388.478.861.718 1.421.718.44 0 .782-.124 1.028-.371.246-.248.369-.596.369-1.045v-.454c-.362.416-.855.625-1.48.625-.618 0-1.119-.25-1.501-.747-.383-.498-.574-1.177-.574-2.037zm.908.103c0 .596.122 1.064.366 1.404.245.34.586.51 1.026.51.57 0 .988-.259 1.255-.776v-2.412c-.277-.505-.692-.757-1.245-.757-.44 0-.783.17-1.03.512-.248.342-.372.848-.372 1.519zm7.11 2.681c-.717 0-1.3-.236-1.749-.706-.449-.47-.673-1.1-.673-1.887v-.166c0-.524.1-.992.3-1.404.2-.412.48-.734.84-.967.36-.233.75-.349 1.17-.349.686 0 1.22.226 1.6.679.382.452.572 1.1.572 1.943v.376h-3.579c.013.521.165.942.457 1.262.29.321.661.481 1.11.481.32 0 .59-.065.81-.195.222-.13.416-.303.582-.518l.552.43c-.443.68-1.107 1.02-1.992 1.02zm-.113-4.737c-.364 0-.67.133-.918.398-.247.266-.4.637-.459 1.116h2.647v-.068c-.026-.46-.15-.815-.371-1.067-.222-.253-.521-.379-.899-.379z" fill="#757575"/><path d="M695.907 381.293c-.105.902-.438 1.599-.999 2.089-.56.49-1.305.735-2.235.735-1.008 0-1.816-.361-2.423-1.084-.607-.722-.911-1.69-.911-2.9v-.82c0-.793.141-1.49.425-2.092.283-.602.684-1.064 1.204-1.386.52-.322 1.12-.483 1.805-.483.906 0 1.632.252 2.18.758.546.506.864 1.206.954 2.1h-1.13c-.098-.679-.31-1.17-.636-1.476-.327-.304-.783-.457-1.368-.457-.72 0-1.283.266-1.691.797-.408.531-.612 1.287-.612 2.268v.826c0 .926.193 1.662.58 2.209.387.547.928.82 1.623.82.625 0 1.104-.141 1.438-.425.334-.283.556-.776.665-1.479zm1.078-.521c0-.622.122-1.18.367-1.676a2.731 2.731 0 0 1 1.02-1.149c.435-.27.932-.404 1.49-.404.864 0 1.562.299 2.095.896.533.598.8 1.393.8 2.385v.076c0 .618-.118 1.171-.355 1.662-.236.49-.574.872-1.013 1.145-.44.273-.945.41-1.515.41-.86 0-1.556-.299-2.089-.896-.533-.598-.8-1.389-.8-2.373zm1.09.128c0 .704.163 1.268.49 1.694.326.426.762.638 1.309.638.55 0 .988-.215 1.313-.647.324-.432.486-1.036.486-1.813 0-.696-.165-1.26-.495-1.69a1.574 1.574 0 0 0-1.316-.648c-.535 0-.966.212-1.295.638-.328.426-.492 1.035-.492 1.828zm6.135-5.9h1.084v9h-1.084zm2.555 5.777c0-.972.23-1.755.691-2.346.461-.592 1.064-.888 1.81-.888.743 0 1.33.254 1.764.762V375h1.084v9h-.996l-.053-.68c-.433.532-1.037.797-1.81.797-.735 0-1.333-.3-1.796-.902-.463-.602-.694-1.387-.694-2.356zm1.084.123c0 .72.148 1.282.445 1.688.297.406.707.61 1.23.61.688 0 1.19-.31 1.506-.926v-2.913c-.324-.597-.822-.896-1.494-.896-.531 0-.945.205-1.242.615-.297.41-.445 1.018-.445 1.822zm6.041-5.9h1.084v9h-1.084zm3.996 9h-1.084v-6.34h1.084zm-1.172-8.022a.65.65 0 0 1 .161-.445c.107-.12.267-.181.477-.181.212 0 .372.06.481.181a.64.64 0 0 1 .164.445.62.62 0 0 1-.164.44c-.11.117-.27.176-.48.176-.211 0-.37-.059-.478-.176a.626.626 0 0 1-.161-.44zm3.931 1.682l.036.797c.484-.61 1.117-.914 1.898-.914 1.34 0 2.016.756 2.027 2.268V384h-1.083v-4.195c-.004-.457-.109-.795-.314-1.014-.205-.219-.524-.328-.958-.328-.352 0-.66.094-.926.281a1.91 1.91 0 0 0-.62.738V384h-1.085v-6.34zm8.227 6.457c-.86 0-1.558-.282-2.098-.846-.539-.565-.808-1.32-.808-2.265v-.2c0-.628.12-1.19.36-1.684a2.81 2.81 0 0 1 1.008-1.16c.432-.28.9-.419 1.403-.419.825 0 1.465.271 1.922.814.457.543.686 1.32.686 2.332v.452h-4.295c.015.625.198 1.13.548 1.514.35.385.794.577 1.333.577.382 0 .707-.078.972-.234.266-.156.498-.363.698-.621l.662.516c-.532.816-1.328 1.224-2.39 1.224zm-.135-5.683c-.437 0-.804.159-1.101.477-.297.318-.48.765-.551 1.339h3.176v-.082c-.031-.55-.18-.978-.446-1.28-.265-.303-.625-.454-1.078-.454zM735.74 384v-8.531h2.788c.926 0 1.622.191 2.09.574.466.383.7.95.7 1.7 0 .398-.114.75-.34 1.057a2.202 2.202 0 0 1-.926.712c.46.129.825.374 1.092.735.268.361.402.792.402 1.292 0 .766-.248 1.367-.744 1.805-.496.437-1.197.656-2.104.656zm1.124-3.99v3.07h1.858c.523 0 .936-.136 1.239-.407.303-.272.454-.646.454-1.122 0-1.028-.559-1.541-1.676-1.541zm0-.903h1.7c.492 0 .885-.123 1.18-.369.295-.246.442-.58.442-1.002 0-.468-.136-.81-.41-1.022-.273-.213-.69-.32-1.248-.32h-1.664zm10.09 4.266c-.422.496-1.04.744-1.857.744-.676 0-1.19-.196-1.544-.589-.354-.392-.533-.973-.536-1.743v-4.125h1.084v4.096c0 .96.39 1.441 1.172 1.441.828 0 1.378-.308 1.652-.925v-4.612h1.084V384h-1.032zm5.244-.141c.387 0 .725-.117 1.014-.351a1.23 1.23 0 0 0 .48-.879h1.026c-.02.363-.145.709-.375 1.037a2.47 2.47 0 0 1-.923.785 2.663 2.663 0 0 1-1.222.293c-.863 0-1.55-.288-2.06-.864-.51-.576-.764-1.364-.764-2.364v-.182c0-.617.113-1.166.34-1.646.226-.48.552-.854.975-1.12.424-.265.925-.398 1.503-.398.711 0 1.302.213 1.773.639.47.425.721.978.753 1.658h-1.026a1.494 1.494 0 0 0-.465-1.01 1.45 1.45 0 0 0-1.035-.396c-.55 0-.977.198-1.28.594-.303.397-.454.97-.454 1.72v.205c0 .73.15 1.293.451 1.688.301.394.73.591 1.29.591zm5.508-2.168l-.68.71V384h-1.084v-9h1.084v5.443l.58-.697 1.975-2.086h1.318l-2.466 2.649 2.754 3.691h-1.272zm6.826 3.053c-.86 0-1.558-.282-2.097-.846-.54-.565-.809-1.32-.809-2.265v-.2c0-.628.12-1.19.36-1.684s.577-.88 1.008-1.16c.432-.28.9-.419 1.404-.419.824 0 1.464.271 1.921.814.457.543.686 1.32.686 2.332v.452h-4.295c.016.625.198 1.13.548 1.514.35.385.794.577 1.333.577.383 0 .707-.078.972-.234.266-.156.499-.363.698-.621l.662.516c-.531.816-1.328 1.224-2.39 1.224zm-.135-5.683c-.437 0-.804.159-1.101.477-.297.318-.48.765-.55 1.339h3.175v-.082c-.031-.55-.18-.978-.445-1.28-.266-.303-.625-.454-1.078-.454zm5.333-2.309v1.535h1.183v.838h-1.183v3.932c0 .254.052.444.158.571.105.127.285.19.539.19.125 0 .297-.023.515-.07V384a3.143 3.143 0 0 1-.832.117c-.484 0-.85-.146-1.095-.44-.246-.292-.37-.708-.37-1.247v-3.932h-1.154v-.838h1.154v-1.535zm-314.582-.656h1.131v6.04c0 .817-.245 1.456-.735 1.917-.49.46-1.144.691-1.96.691-.848 0-1.508-.217-1.98-.65-.473-.434-.71-1.041-.71-1.822h1.126c0 .488.133.869.4 1.142.268.274.656.41 1.164.41.465 0 .84-.146 1.128-.44.287-.292.433-.702.436-1.23zm5.508 8.648c-.86 0-1.558-.282-2.097-.846-.54-.565-.809-1.32-.809-2.265v-.2c0-.628.12-1.19.36-1.684s.577-.88 1.008-1.16c.432-.28.9-.419 1.404-.419.824 0 1.464.271 1.921.814.457.543.686 1.32.686 2.332v.452h-4.295c.016.625.198 1.13.548 1.514.35.385.794.577 1.333.577.383 0 .707-.078.973-.234.265-.156.498-.363.697-.621l.662.516c-.531.816-1.328 1.224-2.39 1.224zm-.135-5.683c-.437 0-.804.159-1.101.477-.297.318-.48.765-.55 1.339h3.175v-.082c-.031-.55-.18-.978-.445-1.28-.266-.303-.625-.454-1.079-.454zm4.887-.774l.035.797c.485-.61 1.118-.914 1.899-.914 1.34 0 2.015.756 2.027 2.268V384h-1.084v-4.195c-.004-.457-.108-.795-.313-1.014-.205-.219-.525-.328-.958-.328-.352 0-.66.094-.926.281a1.91 1.91 0 0 0-.621.738V384h-1.084v-6.34zm7.365 3.404l-.68.71V384h-1.083v-9h1.084v5.443l.58-.697 1.974-2.086h1.319l-2.467 2.649 2.754 3.691h-1.272zm5.491 2.936h-1.084v-6.34h1.084zm-1.172-8.022c0-.175.054-.324.16-.445.108-.12.268-.181.478-.181.211 0 .372.06.48.181a.64.64 0 0 1 .165.445.62.62 0 0 1-.164.44c-.11.117-.27.176-.48.176-.211 0-.37-.059-.478-.176a.626.626 0 0 1-.161-.44zm3.931 1.682l.036.797c.484-.61 1.117-.914 1.898-.914 1.34 0 2.016.756 2.027 2.268V384H483.9v-4.195c-.003-.457-.108-.795-.313-1.014-.205-.219-.524-.328-.958-.328-.352 0-.66.094-.926.281a1.91 1.91 0 0 0-.621.738V384h-1.084v-6.34zm9.287 4.658c0-.293-.11-.52-.33-.682-.221-.162-.606-.302-1.155-.42-.549-.116-.984-.257-1.306-.421-.323-.164-.561-.36-.715-.586a1.402 1.402 0 0 1-.232-.809c0-.52.22-.959.66-1.318.439-.36 1-.539 1.684-.539.719 0 1.302.185 1.749.557.447.37.67.845.67 1.423h-1.089c0-.296-.126-.552-.378-.767-.252-.215-.57-.322-.952-.322-.394 0-.703.086-.926.257a.812.812 0 0 0-.334.674c0 .262.104.46.31.592.208.133.582.26 1.123.38.54.122.98.267 1.315.435.336.167.585.37.747.606.162.236.244.524.244.864 0 .567-.227 1.02-.68 1.362-.453.342-1.041.513-1.764.513-.508 0-.957-.09-1.348-.27a2.183 2.183 0 0 1-.916-.752 1.815 1.815 0 0 1-.332-1.046h1.084c.02.363.165.651.437.864.271.213.63.32 1.075.32.41 0 .74-.084.987-.25.249-.166.373-.387.373-.665zm10.348-.545h-3.574l-.803 2.227h-1.16l3.258-8.531h.984l3.264 8.531h-1.154zm-3.234-.925h2.9l-1.453-3.99zm5.924-.071c0-.988.228-1.774.685-2.358.457-.584 1.063-.876 1.817-.876.773 0 1.377.273 1.81.82l.053-.703h.99v6.188c0 .82-.243 1.466-.73 1.94-.486.472-1.139.708-1.96.708a3.26 3.26 0 0 1-1.341-.293c-.438-.195-.772-.463-1.002-.803l.562-.65c.465.574 1.034.861 1.705.861.528 0 .939-.148 1.234-.445.295-.297.442-.715.442-1.254v-.545c-.433.5-1.025.75-1.775.75-.742 0-1.343-.299-1.802-.896-.459-.598-.688-1.412-.688-2.444zm1.09.123c0 .715.146 1.277.439 1.685.293.408.703.612 1.23.612.684 0 1.186-.31 1.506-.931v-2.895c-.332-.605-.83-.908-1.494-.908-.527 0-.94.205-1.236.615-.297.41-.445 1.018-.445 1.822zm8.531 3.217c-.86 0-1.559-.282-2.098-.846-.539-.565-.808-1.32-.808-2.265v-.2c0-.628.12-1.19.36-1.684s.576-.88 1.008-1.16c.431-.28.9-.419 1.403-.419.824 0 1.465.271 1.922.814.457.543.685 1.32.685 2.332v.452h-4.295c.016.625.199 1.13.548 1.514.35.385.794.577 1.333.577.383 0 .707-.078.973-.234.266-.156.498-.363.697-.621l.662.516c-.53.816-1.328 1.224-2.39 1.224zm-.135-5.683c-.438 0-.805.159-1.102.477-.296.318-.48.765-.55 1.339h3.175v-.082c-.03-.55-.18-.978-.445-1.28-.266-.303-.625-.454-1.078-.454zm4.886-.774l.036.797c.484-.61 1.117-.914 1.898-.914 1.34 0 2.016.756 2.028 2.268V384h-1.084v-4.195c-.004-.457-.109-.795-.314-1.014-.205-.219-.524-.328-.958-.328-.351 0-.66.094-.926.281a1.91 1.91 0 0 0-.62.738V384h-1.085v-6.34zm7.067-1.535v1.535h1.184v.838h-1.184v3.932c0 .254.053.444.158.571.106.127.285.19.54.19.124 0 .296-.023.515-.07V384a3.142 3.142 0 0 1-.832.117c-.484 0-.85-.146-1.096-.44-.246-.292-.369-.708-.369-1.247v-3.932h-1.154v-.838h1.154v-1.535zM695.606 251.5h-1.131l-4.295-6.574v6.574h-1.131v-8.531h1.13l4.307 6.603v-6.603h1.12zm4.458.117c-.859 0-1.558-.282-2.097-.846-.54-.565-.809-1.32-.809-2.265v-.2c0-.628.12-1.19.36-1.684a2.81 2.81 0 0 1 1.008-1.16c.432-.28.9-.419 1.404-.419.824 0 1.465.271 1.922.814.457.543.685 1.32.685 2.332v.452h-4.295c.016.625.198 1.13.548 1.514.35.385.794.577 1.333.577.383 0 .707-.078.973-.234.265-.156.498-.363.697-.621l.662.516c-.531.816-1.328 1.224-2.39 1.224zm-.134-5.683c-.438 0-.805.159-1.102.477-.297.319-.48.765-.55 1.339h3.175v-.082c-.031-.55-.18-.978-.445-1.28-.266-.303-.625-.454-1.078-.454zm7.775 5.566c-.062-.125-.113-.348-.152-.668-.504.523-1.106.785-1.805.785-.625 0-1.138-.177-1.538-.53-.4-.354-.6-.802-.6-1.345 0-.66.25-1.173.752-1.538s1.208-.548 2.119-.548h1.054v-.498c0-.379-.113-.68-.34-.905-.226-.225-.56-.337-1.002-.337-.386 0-.71.098-.972.293-.262.195-.393.432-.393.709h-1.09c0-.316.113-.622.337-.917a2.3 2.3 0 0 1 .914-.7 3.075 3.075 0 0 1 1.269-.258c.73 0 1.303.183 1.717.548.414.365.629.868.644 1.509v2.918c0 .582.074 1.044.223 1.388v.094zm-1.799-.826c.34 0 .662-.088.967-.264.305-.176.525-.404.662-.685v-1.301h-.85c-1.328 0-1.992.388-1.992 1.166 0 .34.114.605.34.797.227.191.518.287.873.287zm7.477-4.541a3.25 3.25 0 0 0-.533-.041c-.711 0-1.194.303-1.448.908v4.5h-1.084v-6.34h1.055l.018.733c.355-.567.859-.85 1.511-.85.211 0 .371.027.48.082zm1.09-3.633h1.084v9h-1.084zm3.996 9h-1.084v-6.34h1.084zm-1.172-8.021a.65.65 0 0 1 .161-.446c.107-.12.267-.181.478-.181.21 0 .37.06.48.181a.64.64 0 0 1 .164.446.62.62 0 0 1-.164.439c-.11.117-.27.176-.48.176-.211 0-.37-.059-.478-.176a.626.626 0 0 1-.161-.44zm3.932 1.681l.035.797c.484-.61 1.117-.914 1.898-.914 1.34 0 2.016.756 2.027 2.268v4.189h-1.083v-4.195c-.004-.457-.109-.795-.314-1.014-.205-.219-.524-.328-.958-.328-.352 0-.66.094-.926.281a1.91 1.91 0 0 0-.62.738v4.518h-1.085v-6.34zm8.226 6.457c-.86 0-1.559-.282-2.098-.846-.539-.565-.808-1.32-.808-2.265v-.2c0-.628.12-1.19.36-1.684a2.81 2.81 0 0 1 1.008-1.16c.432-.28.9-.419 1.403-.419.824 0 1.465.271 1.922.814.457.543.686 1.32.686 2.332v.452h-4.295c.015.625.198 1.13.548 1.514.35.385.794.577 1.333.577.382 0 .707-.078.972-.234.266-.156.498-.363.698-.621l.662.516c-.532.816-1.328 1.224-2.39 1.224zm-.135-5.683c-.437 0-.804.159-1.101.477-.297.319-.48.765-.551 1.339h3.176v-.082c-.032-.55-.18-.978-.446-1.28-.265-.303-.625-.454-1.078-.454zm7.002 5.566v-8.531h2.79c.925 0 1.621.191 2.088.574.467.383.7.95.7 1.7 0 .398-.113.75-.34 1.057a2.203 2.203 0 0 1-.925.712c.46.129.825.374 1.092.735.268.361.402.792.402 1.292 0 .766-.248 1.367-.744 1.805-.496.437-1.197.656-2.104.656zm1.125-3.99v3.07h1.858c.523 0 .936-.136 1.239-.407.303-.272.454-.646.454-1.122 0-1.028-.559-1.541-1.676-1.541zm0-.903h1.7c.492 0 .885-.123 1.18-.369.295-.246.442-.58.442-1.002 0-.468-.136-.81-.41-1.022-.273-.213-.69-.32-1.248-.32h-1.664zm10.09 4.266c-.422.496-1.04.744-1.857.744-.676 0-1.19-.196-1.544-.589-.354-.392-.532-.973-.536-1.743v-4.125h1.084v4.096c0 .96.39 1.441 1.172 1.441.828 0 1.378-.308 1.652-.926v-4.61h1.084v6.339h-1.031zm5.244-.141c.387 0 .725-.117 1.014-.351.289-.235.45-.527.48-.88h1.026c-.02.364-.145.71-.375 1.038a2.47 2.47 0 0 1-.923.785 2.663 2.663 0 0 1-1.222.293c-.863 0-1.55-.288-2.06-.864-.51-.576-.764-1.364-.764-2.364v-.182c0-.617.113-1.166.34-1.646.226-.48.552-.854.976-1.12.423-.265.924-.398 1.502-.398.711 0 1.302.213 1.773.639.47.425.721.978.753 1.658h-1.026a1.494 1.494 0 0 0-.465-1.01 1.45 1.45 0 0 0-1.035-.396c-.55 0-.977.198-1.28.594-.303.397-.454.97-.454 1.72v.205c0 .73.15 1.293.451 1.688.301.394.73.591 1.29.591zm5.509-2.168l-.68.71v2.226h-1.085v-9h1.084v5.443l.58-.697 1.975-2.086h1.318l-2.466 2.649 2.754 3.691h-1.272zm6.825 3.053c-.86 0-1.558-.282-2.097-.846-.54-.565-.809-1.32-.809-2.265v-.2c0-.628.12-1.19.36-1.684s.577-.88 1.008-1.16c.432-.28.9-.419 1.404-.419.824 0 1.464.271 1.921.814.457.543.686 1.32.686 2.332v.452h-4.295c.016.625.198 1.13.548 1.514.35.385.794.577 1.333.577.383 0 .707-.078.972-.234.266-.156.499-.363.698-.621l.662.516c-.531.816-1.328 1.224-2.39 1.224zm-.135-5.683c-.437 0-.804.159-1.101.477-.297.319-.48.765-.55 1.339h3.175v-.082c-.031-.55-.18-.978-.445-1.28-.266-.303-.625-.454-1.078-.454zm5.333-2.309v1.535h1.183v.838h-1.183v3.932c0 .254.052.444.158.571.105.127.285.19.539.19.125 0 .297-.023.515-.07v.879a3.143 3.143 0 0 1-.832.117c-.484 0-.85-.146-1.095-.44-.246-.292-.37-.708-.37-1.247v-3.932h-1.154v-.838h1.155v-1.535zm-315.165-.656h1.131v6.04c0 .817-.245 1.456-.735 1.917-.49.46-1.144.691-1.96.691-.848 0-1.508-.217-1.98-.65-.473-.434-.71-1.041-.71-1.822h1.126c0 .488.133.869.4 1.142.268.274.656.41 1.164.41.465 0 .84-.146 1.128-.44.287-.292.433-.702.436-1.23zm5.508 8.648c-.86 0-1.558-.282-2.097-.846-.54-.565-.809-1.32-.809-2.265v-.2c0-.628.12-1.19.36-1.684s.577-.88 1.008-1.16c.432-.28.9-.419 1.404-.419.824 0 1.464.271 1.921.814.457.543.686 1.32.686 2.332v.452h-4.295c.016.625.198 1.13.548 1.514.35.385.794.577 1.333.577.383 0 .707-.078.973-.234.265-.156.498-.363.697-.621l.662.516c-.531.816-1.328 1.224-2.39 1.224zm-.135-5.683c-.437 0-.804.159-1.101.477-.297.319-.48.765-.55 1.339h3.175v-.082c-.031-.55-.18-.978-.445-1.28-.266-.303-.625-.454-1.079-.454zm4.887-.774l.035.797c.485-.61 1.118-.914 1.899-.914 1.34 0 2.015.756 2.027 2.268v4.189h-1.084v-4.195c-.004-.457-.108-.795-.313-1.014-.205-.219-.525-.328-.958-.328-.352 0-.66.094-.926.281a1.91 1.91 0 0 0-.621.738v4.518h-1.084v-6.34zm7.365 3.404l-.68.71v2.226h-1.083v-9h1.084v5.443l.58-.697 1.974-2.086h1.319l-2.467 2.649 2.754 3.691h-1.272zm5.491 2.936h-1.084v-6.34h1.084zm-1.172-8.021c0-.176.054-.325.16-.446.108-.12.268-.181.478-.181.211 0 .372.06.48.181a.64.64 0 0 1 .165.446.62.62 0 0 1-.164.439c-.11.117-.27.176-.48.176-.211 0-.37-.059-.478-.176a.626.626 0 0 1-.161-.44zm3.931 1.681l.036.797c.484-.61 1.117-.914 1.898-.914 1.34 0 2.016.756 2.027 2.268v4.189H483.9v-4.195c-.003-.457-.108-.795-.313-1.014-.205-.219-.524-.328-.958-.328-.352 0-.66.094-.926.281a1.91 1.91 0 0 0-.621.738v4.518h-1.084v-6.34zm9.287 4.658c0-.293-.11-.52-.33-.682-.221-.162-.606-.302-1.155-.42-.549-.116-.984-.257-1.306-.421-.323-.164-.561-.36-.715-.586a1.401 1.401 0 0 1-.232-.809c0-.52.22-.959.66-1.318.439-.36 1-.539 1.684-.539.719 0 1.302.185 1.749.557.447.37.67.845.67 1.423h-1.089c0-.296-.126-.552-.378-.767-.252-.215-.57-.322-.952-.322-.394 0-.703.086-.926.257a.812.812 0 0 0-.334.674c0 .262.104.46.31.592.208.133.582.26 1.123.38.54.122.98.267 1.315.434.336.168.585.37.747.607.162.236.244.524.244.864 0 .567-.227 1.02-.68 1.363-.453.341-1.041.512-1.764.512-.508 0-.957-.09-1.348-.27a2.183 2.183 0 0 1-.916-.752 1.815 1.815 0 0 1-.332-1.046h1.084c.02.363.165.651.437.864.271.213.63.32 1.075.32.41 0 .74-.084.987-.25.249-.166.373-.387.373-.665zm10.348-.545h-3.574l-.803 2.227h-1.16l3.258-8.531h.984l3.264 8.531h-1.154zm-3.234-.925h2.9l-1.453-3.99zm5.924-.071c0-.988.228-1.774.685-2.358.457-.584 1.063-.876 1.817-.876.773 0 1.377.273 1.81.82l.053-.703h.99v6.188c0 .82-.243 1.466-.73 1.94-.486.472-1.139.708-1.96.708a3.26 3.26 0 0 1-1.341-.293c-.438-.195-.772-.463-1.002-.803l.562-.65c.465.574 1.034.861 1.705.861.528 0 .939-.148 1.234-.445.295-.297.442-.715.442-1.254v-.545c-.433.5-1.025.75-1.775.75-.742 0-1.343-.299-1.802-.896-.459-.598-.688-1.412-.688-2.444zm1.09.123c0 .715.146 1.277.439 1.685.293.408.703.612 1.23.612.684 0 1.186-.31 1.506-.931v-2.895c-.332-.605-.83-.908-1.494-.908-.527 0-.94.205-1.236.615-.297.41-.445 1.018-.445 1.822zm8.531 3.217c-.86 0-1.559-.282-2.098-.846-.539-.565-.808-1.32-.808-2.265v-.2c0-.628.12-1.19.36-1.684s.576-.88 1.008-1.16c.431-.28.9-.419 1.403-.419.824 0 1.465.271 1.922.814.457.543.685 1.32.685 2.332v.452h-4.295c.016.625.199 1.13.548 1.514.35.385.794.577 1.333.577.383 0 .707-.078.973-.234.266-.156.498-.363.697-.621l.662.516c-.53.816-1.328 1.224-2.39 1.224zm-.135-5.683c-.438 0-.805.159-1.102.477-.296.319-.48.765-.55 1.339h3.175v-.082c-.03-.55-.18-.978-.445-1.28-.266-.303-.625-.454-1.078-.454zm4.886-.774l.036.797c.484-.61 1.117-.914 1.898-.914 1.34 0 2.016.756 2.028 2.268v4.189h-1.084v-4.195c-.004-.457-.109-.795-.314-1.014-.205-.219-.524-.328-.958-.328-.351 0-.66.094-.926.281a1.91 1.91 0 0 0-.62.738v4.518h-1.085v-6.34zm7.067-1.535v1.535h1.184v.838h-1.184v3.932c0 .254.053.444.158.571.106.127.285.19.54.19.124 0 .296-.023.515-.07v.879a3.142 3.142 0 0 1-.832.117c-.484 0-.85-.146-1.096-.44-.246-.292-.369-.708-.369-1.247v-3.932h-1.154v-.838h1.154v-1.535z" fill="#212121"/><path d="M739.56 334.75h-.909v-6.02l-1.82.668v-.82l2.587-.972h.142zm6.943-1.323l1.23-3.96h.967l-2.124 6.098c-.329.88-.851 1.319-1.567 1.319l-.171-.015-.337-.063v-.733l.244.02c.306 0 .545-.062.715-.186.171-.123.312-.35.423-.678l.2-.538-1.885-5.224h.987zm5.132 1.421c-.716 0-1.3-.236-1.748-.706-.45-.47-.674-1.1-.674-1.887v-.166c0-.524.1-.992.3-1.404.2-.412.48-.734.84-.967.36-.233.75-.349 1.17-.349.686 0 1.22.226 1.601.679.38.452.571 1.1.571 1.943v.376h-3.579c.013.521.165.942.457 1.262.291.321.661.481 1.11.481.32 0 .59-.065.811-.195.221-.13.415-.303.581-.518l.552.43c-.443.68-1.107 1.02-1.992 1.02zm-.112-4.737c-.365 0-.671.133-.918.398-.248.266-.4.637-.46 1.116h2.647v-.068c-.026-.46-.15-.815-.371-1.067-.222-.253-.52-.379-.899-.379zm6.479 4.639c-.052-.104-.094-.29-.127-.557-.42.437-.921.655-1.504.655-.52 0-.948-.148-1.282-.442a1.43 1.43 0 0 1-.5-1.12c0-.551.209-.978.627-1.283.419-.304 1.007-.456 1.765-.456h.88v-.415c0-.316-.095-.567-.284-.755-.189-.187-.467-.28-.835-.28-.322 0-.592.081-.81.244-.219.163-.327.36-.327.59h-.909c0-.263.094-.518.281-.763a1.92 1.92 0 0 1 .762-.584c.32-.143.673-.215 1.057-.215.609 0 1.085.152 1.43.457.346.304.525.723.538 1.257v2.432c0 .485.062.87.185 1.157v.078zm-1.5-.688c.284 0 .553-.074.807-.22a1.33 1.33 0 0 0 .551-.571v-1.084h-.708c-1.106 0-1.66.323-1.66.971 0 .283.095.505.283.664.19.16.432.24.728.24zm6.231-3.785a2.707 2.707 0 0 0-.444-.034c-.592 0-.994.252-1.206.757v3.75h-.903v-5.283h.879l.014.61c.297-.472.716-.708 1.26-.708.176 0 .31.023.4.068zm-292.178 91.467c-.088.752-.366 1.332-.833 1.74-.467.41-1.088.614-1.863.614-.84 0-1.512-.301-2.019-.904-.506-.602-.759-1.408-.759-2.417v-.683c0-.661.118-1.242.354-1.743.236-.502.57-.887 1.003-1.155.433-.269.935-.403 1.504-.403.756 0 1.361.21 1.817.632.455.422.72 1.005.796 1.75h-.943c-.081-.566-.258-.976-.53-1.23-.271-.254-.651-.38-1.14-.38-.599 0-1.068.22-1.408.663-.34.443-.51 1.073-.51 1.89v.689c0 .771.16 1.385.483 1.84.322.456.773.684 1.352.684.521 0 .92-.118 1.2-.354.277-.236.462-.647.553-1.233zm.898-.434c0-.518.102-.983.305-1.397.204-.413.487-.732.85-.957a2.313 2.313 0 0 1 1.243-.337c.719 0 1.3.25 1.745.747.445.498.667 1.16.667 1.988v.063c0 .514-.099.976-.296 1.384a2.243 2.243 0 0 1-.844.955 2.34 2.34 0 0 1-1.263.342c-.716 0-1.296-.25-1.74-.747-.445-.498-.667-1.158-.667-1.978zm.908.107c0 .586.136 1.056.408 1.411.272.355.636.532 1.091.532.46 0 .824-.18 1.094-.54.27-.359.405-.863.405-1.51 0-.58-.137-1.05-.412-1.41a1.312 1.312 0 0 0-1.096-.539 1.3 1.3 0 0 0-1.08.533c-.273.354-.41.862-.41 1.523zm5.884-2.7l.025.586c.387-.456.91-.684 1.567-.684.739 0 1.242.283 1.509.85.175-.254.404-.46.686-.615.281-.157.614-.235.998-.235 1.16 0 1.748.614 1.768 1.841V424h-.903v-3.486c0-.378-.087-.66-.26-.848-.172-.187-.462-.28-.868-.28-.336 0-.614.1-.835.3-.222.2-.35.47-.386.808V424h-.908v-3.462c0-.768-.376-1.152-1.128-1.152-.593 0-.998.252-1.216.757V424h-.903v-5.283zm12.378 2.7c0 .804-.184 1.452-.552 1.943-.368.492-.866.738-1.494.738-.641 0-1.146-.204-1.514-.61v2.543h-.903v-7.314h.825l.044.586c.368-.456.88-.684 1.534-.684.634 0 1.136.24 1.506.718.37.478.554 1.144.554 1.997zm-.903-.103c0-.595-.127-1.066-.381-1.41-.254-.346-.602-.518-1.045-.518-.547 0-.957.242-1.23.727v2.525c.27.481.683.722 1.24.722.433 0 .777-.171 1.032-.515.256-.343.384-.853.384-1.53zm5.312 2.164c-.351.413-.867.62-1.548.62-.563 0-.992-.164-1.286-.491-.295-.327-.444-.811-.447-1.453v-3.437h.903v3.413c0 .8.326 1.201.977 1.201.69 0 1.149-.257 1.377-.771v-3.843h.903V424h-.86zm3.477-6.04v1.279h.986v.698h-.986v3.276c0 .212.044.37.132.477.087.105.237.158.449.158.104 0 .247-.02.43-.058V424a2.619 2.619 0 0 1-.694.098c-.404 0-.708-.122-.913-.367-.205-.244-.308-.59-.308-1.04v-3.276h-.961v-.698h.961v-1.28zm4.233 6.66c-.716 0-1.299-.236-1.748-.706-.45-.47-.674-1.1-.674-1.887v-.166c0-.524.1-.992.3-1.404.2-.412.48-.734.84-.967.36-.233.75-.349 1.17-.349.687 0 1.22.226 1.601.679.381.452.572 1.1.572 1.943v.376h-3.58c.014.521.166.942.457 1.262.291.321.662.481 1.111.481.319 0 .59-.065.81-.195.222-.13.416-.303.582-.518l.551.43c-.442.68-1.106 1.02-1.992 1.02zm-.112-4.737c-.365 0-.67.133-.918.398-.248.266-.4.637-.46 1.116h2.647v-.068c-.026-.46-.15-.815-.37-1.067-.222-.253-.522-.379-.9-.379zm9.853 1.353h-3.08v2.52h3.578V424h-4.516v-7.11h4.468v.772h-3.53v2.285h3.08zm2.378-1.997l.03.664a1.925 1.925 0 0 1 1.582-.762c1.116 0 1.68.63 1.69 1.89V424h-.904v-3.496c-.003-.381-.09-.663-.261-.845-.171-.182-.437-.273-.799-.273-.293 0-.55.078-.771.234a1.592 1.592 0 0 0-.518.615V424h-.903v-5.283zm4.449 2.597c0-.823.19-1.478.57-1.965.382-.487.886-.73 1.515-.73.644 0 1.147.228 1.508.684l.044-.586h.825v5.156c0 .684-.202 1.222-.607 1.616-.406.394-.95.591-1.634.591-.38 0-.753-.081-1.118-.244-.365-.163-.643-.386-.835-.669l.469-.542c.387.478.86.718 1.42.718.44 0 .783-.124 1.029-.371.245-.248.368-.596.368-1.045v-.454c-.361.416-.854.625-1.48.625-.618 0-1.118-.25-1.5-.747-.383-.498-.574-1.177-.574-2.037zm.908.103c0 .596.122 1.064.366 1.404.244.34.586.51 1.025.51.57 0 .988-.259 1.255-.776v-2.412c-.276-.505-.692-.757-1.245-.757-.44 0-.783.17-1.03.512-.248.342-.371.848-.371 1.519zm5.898 2.583h-.903v-5.283h.903zm-.976-6.685a.54.54 0 0 1 .134-.37c.09-.102.222-.152.398-.152.176 0 .31.05.4.151a.535.535 0 0 1 .137.371.516.516 0 0 1-.137.367c-.09.097-.224.146-.4.146-.176 0-.309-.049-.398-.146a.521.521 0 0 1-.134-.367zm3.276 1.402l.03.664a1.925 1.925 0 0 1 1.581-.762c1.117 0 1.68.63 1.69 1.89V424h-.904v-3.496c-.003-.381-.09-.663-.26-.845-.172-.182-.438-.273-.8-.273a1.3 1.3 0 0 0-.77.234 1.592 1.592 0 0 0-.518.615V424h-.904v-5.283zm6.855 5.381c-.716 0-1.298-.236-1.748-.706-.449-.47-.673-1.1-.673-1.887v-.166c0-.524.1-.992.3-1.404.2-.412.48-.734.84-.967.36-.233.75-.349 1.17-.349.686 0 1.22.226 1.6.679.382.452.572 1.1.572 1.943v.376h-3.58c.014.521.166.942.458 1.262.29.321.661.481 1.11.481.32 0 .59-.065.81-.195.222-.13.416-.303.582-.518l.552.43c-.443.68-1.107 1.02-1.993 1.02zm-.112-4.737c-.364 0-.67.133-.918.398-.247.266-.4.637-.459 1.116h2.647v-.068c-.026-.46-.15-.815-.371-1.067-.222-.253-.521-.379-.899-.379zM369.458 46.744c-.088.752-.365 1.332-.833 1.74-.467.41-1.088.614-1.862.614-.84 0-1.513-.301-2.02-.904-.506-.602-.759-1.408-.759-2.417v-.683c0-.661.118-1.242.354-1.743.236-.502.57-.887 1.004-1.155.433-.269.934-.403 1.504-.403.755 0 1.36.21 1.816.632.456.422.721 1.005.796 1.75h-.942c-.082-.566-.258-.976-.53-1.23s-.652-.38-1.14-.38c-.6 0-1.069.22-1.409.664-.34.442-.51 1.072-.51 1.89v.688c0 .771.16 1.385.483 1.84.322.456.773.684 1.353.684.52 0 .92-.118 1.198-.354.279-.236.464-.647.555-1.233zm.898-.434c0-.518.102-.983.306-1.397.203-.413.486-.732.85-.957a2.313 2.313 0 0 1 1.242-.337c.72 0 1.301.25 1.745.747.445.498.667 1.16.667 1.988v.063c0 .514-.098.976-.295 1.384a2.243 2.243 0 0 1-.845.955 2.34 2.34 0 0 1-1.262.342c-.716 0-1.297-.25-1.741-.747-.444-.498-.667-1.158-.667-1.978zm.909.107c0 .586.136 1.056.407 1.411.272.355.636.532 1.092.532.459 0 .823-.18 1.093-.54.27-.359.406-.863.406-1.51 0-.58-.138-1.05-.413-1.41a1.312 1.312 0 0 0-1.096-.539 1.3 1.3 0 0 0-1.08.533c-.273.354-.41.862-.41 1.523zm5.883-2.7l.025.586c.387-.456.91-.684 1.567-.684.74 0 1.242.283 1.509.85.176-.254.404-.46.686-.615.282-.157.614-.235.999-.235 1.158 0 1.748.614 1.767 1.841V49h-.903v-3.486c0-.378-.086-.66-.259-.847-.172-.188-.462-.281-.87-.281-.334 0-.613.1-.834.3-.221.2-.35.47-.386.808V49h-.908v-3.462c0-.768-.376-1.152-1.128-1.152-.592 0-.998.252-1.216.757V49h-.903v-5.283zm12.378 2.7c0 .804-.184 1.452-.551 1.943-.368.492-.866.738-1.495.738-.64 0-1.145-.204-1.513-.61v2.543h-.904v-7.314h.826l.044.586c.367-.456.879-.684 1.533-.684.635 0 1.137.24 1.506.718.37.478.554 1.144.554 1.997zm-.903-.103c0-.595-.127-1.066-.38-1.41-.255-.346-.603-.518-1.046-.518-.547 0-.957.242-1.23.727v2.525c.27.481.683.722 1.24.722a1.22 1.22 0 0 0 1.033-.515c.255-.343.383-.853.383-1.53zm5.313 2.164c-.352.413-.868.62-1.548.62-.563 0-.992-.164-1.287-.491-.295-.327-.443-.811-.447-1.453v-3.437h.904v3.413c0 .8.325 1.201.976 1.201.69 0 1.15-.257 1.377-.771v-3.843h.903V49h-.859zm3.476-6.04v1.279h.986v.698h-.986v3.276c0 .212.044.37.132.476.088.106.238.16.45.16.103 0 .247-.02.429-.06V49a2.619 2.619 0 0 1-.694.098c-.403 0-.707-.122-.913-.367-.205-.244-.307-.59-.307-1.04v-3.276h-.962v-.698h.962v-1.28zm4.234 6.66c-.717 0-1.3-.236-1.749-.706-.449-.47-.673-1.1-.673-1.887v-.166c0-.524.1-.992.3-1.404.2-.412.48-.734.84-.967a2.12 2.12 0 0 1 1.17-.349c.686 0 1.22.226 1.6.679.382.452.572 1.1.572 1.943v.376h-3.579c.013.521.165.942.457 1.262.29.321.661.481 1.11.481.32 0 .59-.065.81-.195.222-.13.416-.303.582-.518l.552.43c-.443.68-1.107 1.02-1.992 1.02zm-.113-4.737c-.364 0-.67.133-.918.398-.247.266-.4.637-.459 1.116h2.647v-.068c-.026-.46-.15-.815-.371-1.067-.222-.253-.521-.379-.899-.379zm9.854 1.353h-3.081v2.52h3.579V49h-4.517v-7.11h4.468v.772h-3.53v2.285h3.08zm2.378-1.997l.029.664a1.925 1.925 0 0 1 1.582-.762c1.117 0 1.68.63 1.69 1.89V49h-.904v-3.496c-.003-.381-.09-.663-.261-.845-.171-.182-.437-.273-.798-.273-.293 0-.55.078-.772.234a1.591 1.591 0 0 0-.518.615V49h-.903v-5.283zm4.448 2.597c0-.823.19-1.478.571-1.965.381-.487.886-.73 1.514-.73.644 0 1.147.228 1.509.684l.044-.586h.825v5.156c0 .684-.203 1.222-.608 1.616-.405.394-.95.591-1.633.591-.381 0-.754-.081-1.119-.244-.364-.163-.642-.386-.835-.669l.47-.542c.387.479.86.718 1.42.718.44 0 .782-.124 1.028-.371.246-.248.369-.596.369-1.045v-.454c-.362.416-.855.625-1.48.625-.618 0-1.119-.25-1.501-.747-.383-.498-.574-1.177-.574-2.037zm.908.103c0 .596.122 1.064.366 1.404.244.34.586.51 1.026.51.57 0 .988-.259 1.255-.776v-2.412c-.277-.505-.692-.757-1.246-.757-.439 0-.782.17-1.03.512-.247.342-.37.848-.37 1.519zM425.02 49h-.904v-5.283h.904zm-.977-6.685a.54.54 0 0 1 .134-.37c.09-.102.222-.152.398-.152.176 0 .31.05.4.151a.53.53 0 0 1 .137.371.516.516 0 0 1-.136.367c-.092.097-.225.146-.4.146-.177 0-.31-.049-.399-.146a.521.521 0 0 1-.134-.367zm3.277 1.402l.029.664a1.925 1.925 0 0 1 1.582-.762c1.116 0 1.68.63 1.69 1.89V49h-.904v-3.496c-.003-.381-.09-.663-.261-.845-.171-.182-.437-.273-.799-.273-.293 0-.55.078-.771.234a1.592 1.592 0 0 0-.518.615V49h-.903v-5.283zm6.855 5.381c-.716 0-1.299-.236-1.748-.706-.45-.47-.674-1.1-.674-1.887v-.166c0-.524.1-.992.3-1.404.2-.412.48-.734.84-.967a2.12 2.12 0 0 1 1.17-.349c.686 0 1.22.226 1.601.679.38.452.571 1.1.571 1.943v.376h-3.579c.013.521.165.942.457 1.262.291.321.661.481 1.11.481.32 0 .59-.065.811-.195.222-.13.415-.303.581-.518l.552.43c-.443.68-1.107 1.02-1.992 1.02zm-.113-4.737c-.364 0-.67.133-.917.398-.248.266-.4.637-.46 1.116h2.647v-.068c-.026-.46-.15-.815-.371-1.067-.221-.253-.52-.379-.899-.379zm277.993 244.883c-.088.752-.366 1.332-.833 1.74-.467.41-1.088.614-1.863.614-.84 0-1.513-.301-2.019-.904-.506-.602-.759-1.408-.759-2.417v-.683c0-.661.118-1.242.354-1.743.236-.502.57-.887 1.004-1.155.432-.269.934-.403 1.503-.403.756 0 1.361.21 1.817.632.456.422.72 1.005.796 1.75h-.943c-.081-.566-.258-.976-.53-1.23-.271-.254-.651-.38-1.14-.38-.599 0-1.068.22-1.408.663-.34.443-.51 1.073-.51 1.89v.689c0 .771.16 1.385.483 1.84.322.456.773.684 1.352.684.521 0 .92-.118 1.2-.354.277-.236.462-.647.553-1.233zM713.27 284h.903v7.5h-.903zm2.11 4.81c0-.518.102-.983.305-1.397.204-.413.487-.732.85-.957a2.312 2.312 0 0 1 1.242-.337c.72 0 1.302.25 1.746.747.444.498.666 1.16.666 1.988v.063c0 .514-.098.976-.295 1.384a2.243 2.243 0 0 1-.845.955 2.34 2.34 0 0 1-1.262.342c-.716 0-1.296-.25-1.74-.747-.445-.498-.667-1.158-.667-1.978zm.908.107c0 .586.136 1.056.408 1.411.272.355.635.532 1.091.532.46 0 .824-.18 1.094-.54.27-.359.405-.863.405-1.51 0-.58-.137-1.05-.412-1.41a1.314 1.314 0 0 0-1.097-.539c-.446 0-.805.178-1.079.533-.273.354-.41.862-.41 1.523zm8.296 2.061c-.352.413-.867.62-1.548.62-.563 0-.992-.164-1.286-.491-.295-.327-.444-.811-.447-1.453v-3.437h.903v3.413c0 .8.326 1.201.977 1.201.69 0 1.149-.257 1.377-.771v-3.843h.903v5.283h-.86zm2.031-2.164c0-.81.192-1.462.576-1.955.385-.493.887-.74 1.51-.74.618 0 1.108.212 1.469.635V284h.903v7.5h-.83l-.044-.566c-.361.442-.864.664-1.509.664-.612 0-1.11-.251-1.496-.752-.386-.502-.579-1.156-.579-1.963zm.904.103c0 .599.123 1.068.37 1.406.248.339.59.508 1.026.508.573 0 .991-.257 1.255-.771v-2.427c-.27-.498-.685-.747-1.245-.747-.443 0-.788.17-1.035.512-.248.342-.371.848-.371 1.519zm9.668-.586c-.804-.231-1.39-.515-1.756-.852a1.628 1.628 0 0 1-.55-1.248c0-.56.225-1.022.672-1.389.448-.366 1.03-.549 1.746-.549.488 0 .923.094 1.306.283.382.189.679.45.889.781.21.332.315.695.315 1.09h-.943c0-.43-.136-.768-.41-1.014-.273-.246-.66-.369-1.157-.369-.462 0-.823.102-1.082.306-.259.203-.388.485-.388.847 0 .29.123.534.369.735.245.2.664.383 1.255.549.59.166 1.053.35 1.386.55.334.2.581.433.742.7.162.267.242.581.242.942 0 .577-.224 1.038-.674 1.385-.449.346-1.05.52-1.801.52a3.34 3.34 0 0 1-1.367-.281c-.424-.187-.75-.444-.98-.77a1.877 1.877 0 0 1-.344-1.108h.943c0 .43.158.77.476 1.019.317.249.741.373 1.272.373.494 0 .874-.1 1.137-.303a.983.983 0 0 0 .396-.825c0-.348-.122-.618-.366-.808-.245-.19-.687-.378-1.328-.564zm4.921-3.393v1.279h.987v.698h-.987v3.276c0 .212.044.37.132.476.088.106.238.16.45.16.104 0 .247-.02.43-.06v.733a2.618 2.618 0 0 1-.694.098c-.404 0-.708-.122-.913-.367-.205-.244-.308-.59-.308-1.04v-3.276h-.962v-.698h.962v-1.28zm1.661 3.872c0-.518.101-.983.305-1.397.203-.413.486-.732.85-.957a2.313 2.313 0 0 1 1.242-.337c.72 0 1.301.25 1.746.747.444.498.666 1.16.666 1.988v.063c0 .514-.098.976-.295 1.384a2.243 2.243 0 0 1-.845.955 2.34 2.34 0 0 1-1.262.342c-.716 0-1.297-.25-1.74-.747-.445-.498-.667-1.158-.667-1.978zm.908.107c0 .586.136 1.056.408 1.411.271.355.635.532 1.09.532.46 0 .824-.18 1.095-.54.27-.359.405-.863.405-1.51 0-.58-.138-1.05-.413-1.41a1.312 1.312 0 0 0-1.096-.539 1.3 1.3 0 0 0-1.08.533c-.273.354-.41.862-.41 1.523zm7.588-1.89a2.708 2.708 0 0 0-.445-.034c-.592 0-.994.252-1.206.757v3.75h-.903v-5.283h.879l.014.61c.297-.472.717-.708 1.26-.708.176 0 .31.023.4.068zm3.94 4.473c-.052-.104-.094-.29-.127-.557-.42.437-.921.655-1.504.655-.52 0-.948-.148-1.281-.442a1.43 1.43 0 0 1-.501-1.12c0-.551.21-.978.627-1.283.419-.304 1.007-.456 1.766-.456h.879v-.415c0-.316-.095-.567-.284-.755-.188-.187-.467-.28-.835-.28-.322 0-.592.081-.81.244-.218.163-.327.36-.327.59h-.909c0-.263.094-.518.281-.764.187-.245.441-.44.762-.583.32-.143.673-.215 1.057-.215.609 0 1.086.152 1.43.457.346.304.525.723.538 1.257v2.432c0 .485.062.87.185 1.157v.078zm-1.499-.688c.283 0 .552-.074.806-.22a1.33 1.33 0 0 0 .552-.571v-1.084h-.708c-1.107 0-1.66.323-1.66.971 0 .283.094.505.283.664.188.16.43.24.727.24zm3.462-1.998c0-.823.19-1.478.571-1.965.381-.487.886-.73 1.514-.73.644 0 1.147.228 1.509.684l.044-.586h.825v5.156c0 .684-.203 1.222-.608 1.616-.405.394-.95.591-1.633.591-.381 0-.754-.081-1.119-.244-.364-.163-.642-.386-.834-.669l.468-.542c.388.479.861.718 1.421.718.44 0 .782-.124 1.028-.371.246-.248.369-.596.369-1.045v-.454c-.362.416-.855.625-1.48.625-.618 0-1.119-.25-1.501-.747-.383-.498-.574-1.177-.574-2.037zm.908.103c0 .596.122 1.064.366 1.404.245.34.586.51 1.026.51.57 0 .988-.259 1.255-.776v-2.412c-.277-.505-.692-.757-1.245-.757-.44 0-.783.17-1.03.512-.248.342-.372.848-.372 1.519zm7.11 2.681c-.717 0-1.3-.236-1.749-.706-.449-.47-.673-1.1-.673-1.887v-.166c0-.524.1-.992.3-1.404.2-.412.48-.734.84-.967.36-.233.75-.349 1.17-.349.686 0 1.22.226 1.6.679.382.452.572 1.1.572 1.943v.376h-3.579c.013.521.165.942.457 1.262.29.321.661.481 1.11.481.32 0 .59-.065.81-.195.222-.13.416-.303.582-.518l.552.43c-.443.68-1.107 1.02-1.992 1.02zm-.113-4.737c-.364 0-.67.133-.918.398-.247.266-.4.637-.459 1.116h2.647v-.068c-.026-.46-.15-.815-.371-1.067-.222-.253-.521-.379-.899-.379zm-295.518 2.383c-.088.752-.366 1.332-.833 1.74-.467.41-1.088.614-1.863.614-.84 0-1.512-.301-2.019-.904-.506-.602-.759-1.408-.759-2.417v-.683c0-.661.118-1.242.354-1.743.236-.502.57-.887 1.003-1.155.433-.269.935-.403 1.504-.403.756 0 1.361.21 1.817.632.455.422.72 1.005.796 1.75h-.943c-.081-.566-.258-.976-.53-1.23-.271-.254-.651-.38-1.14-.38-.599 0-1.068.22-1.408.663-.34.443-.51 1.073-.51 1.89v.689c0 .771.16 1.385.483 1.84.322.456.773.684 1.352.684.521 0 .92-.118 1.2-.354.277-.236.462-.647.553-1.233zm.898-.434c0-.518.102-.983.305-1.397.204-.413.487-.732.85-.957a2.313 2.313 0 0 1 1.243-.337c.719 0 1.3.25 1.745.747.445.498.667 1.16.667 1.988v.063c0 .514-.099.976-.296 1.384a2.243 2.243 0 0 1-.844.955 2.34 2.34 0 0 1-1.263.342c-.716 0-1.296-.25-1.74-.747-.445-.498-.667-1.158-.667-1.978zm.908.107c0 .586.136 1.056.408 1.411.272.355.636.532 1.091.532.46 0 .824-.18 1.094-.54.27-.359.405-.863.405-1.51 0-.58-.137-1.05-.412-1.41a1.312 1.312 0 0 0-1.096-.539 1.3 1.3 0 0 0-1.08.533c-.273.354-.41.862-.41 1.523zm5.884-2.7l.025.586c.387-.456.91-.684 1.567-.684.739 0 1.242.283 1.509.85.175-.254.404-.46.686-.615.281-.157.614-.235.998-.235 1.16 0 1.748.614 1.768 1.841v3.54h-.903v-3.486c0-.378-.087-.66-.26-.848-.172-.187-.462-.28-.868-.28-.336 0-.614.1-.835.3-.222.2-.35.47-.386.808v3.506h-.908v-3.462c0-.768-.376-1.152-1.128-1.152-.593 0-.998.252-1.216.757v3.857h-.903v-5.283zm12.378 2.7c0 .804-.184 1.452-.552 1.943-.368.492-.866.738-1.494.738-.641 0-1.146-.204-1.514-.61v2.543h-.903v-7.314h.825l.044.586c.368-.456.88-.684 1.534-.684.634 0 1.136.24 1.506.718.37.478.554 1.144.554 1.997zm-.903-.103c0-.595-.127-1.066-.381-1.41-.254-.346-.602-.518-1.045-.518-.547 0-.957.242-1.23.727v2.525c.27.481.683.722 1.24.722.433 0 .777-.171 1.032-.515.256-.343.384-.853.384-1.53zm5.312 2.164c-.351.413-.867.62-1.548.62-.563 0-.992-.164-1.286-.491-.295-.327-.444-.811-.447-1.453v-3.437h.903v3.413c0 .8.326 1.201.977 1.201.69 0 1.149-.257 1.377-.771v-3.843h.903v5.283h-.86zm3.477-6.04v1.279h.986v.698h-.986v3.276c0 .212.044.37.132.476.087.106.237.16.449.16.104 0 .247-.02.43-.06v.733a2.619 2.619 0 0 1-.694.098c-.404 0-.708-.122-.913-.367-.205-.244-.308-.59-.308-1.04v-3.276h-.961v-.698h.961v-1.28zm4.233 6.66c-.716 0-1.299-.236-1.748-.706-.45-.47-.674-1.1-.674-1.887v-.166c0-.524.1-.992.3-1.404.2-.412.48-.734.84-.967.36-.233.75-.349 1.17-.349.687 0 1.22.226 1.601.679.381.452.572 1.1.572 1.943v.376h-3.58c.014.521.166.942.457 1.262.291.321.662.481 1.111.481.319 0 .59-.065.81-.195.222-.13.416-.303.582-.518l.551.43c-.442.68-1.106 1.02-1.992 1.02zm-.112-4.737c-.365 0-.67.133-.918.398-.248.266-.4.637-.46 1.116h2.647v-.068c-.026-.46-.15-.815-.37-1.067-.222-.253-.522-.379-.9-.379zm9.853 1.353h-3.08v2.52h3.578v.766h-4.516v-7.11h4.468v.772h-3.53v2.285h3.08zm2.378-1.997l.03.664a1.925 1.925 0 0 1 1.582-.762c1.116 0 1.68.63 1.69 1.89v3.491h-.904v-3.496c-.003-.381-.09-.663-.261-.845-.171-.182-.437-.273-.799-.273-.293 0-.55.078-.771.234a1.592 1.592 0 0 0-.518.615v3.765h-.903v-5.283zm4.449 2.597c0-.823.19-1.478.57-1.965.382-.487.886-.73 1.515-.73.644 0 1.147.228 1.508.684l.044-.586h.825v5.156c0 .684-.202 1.222-.607 1.616-.406.394-.95.591-1.634.591-.38 0-.753-.081-1.118-.244-.365-.163-.643-.386-.835-.669l.469-.542c.387.479.86.718 1.42.718.44 0 .783-.124 1.029-.371.245-.248.368-.596.368-1.045v-.454c-.361.416-.854.625-1.48.625-.618 0-1.118-.25-1.5-.747-.383-.498-.574-1.177-.574-2.037zm.908.103c0 .596.122 1.064.366 1.404.244.34.586.51 1.025.51.57 0 .988-.259 1.255-.776v-2.412c-.276-.505-.692-.757-1.245-.757-.44 0-.783.17-1.03.512-.248.342-.371.848-.371 1.519zm5.898 2.583h-.903v-5.283h.903zm-.976-6.685a.54.54 0 0 1 .134-.37c.09-.102.222-.152.398-.152.176 0 .31.05.4.151a.535.535 0 0 1 .137.371.516.516 0 0 1-.137.367c-.09.097-.224.146-.4.146-.176 0-.309-.049-.398-.146a.521.521 0 0 1-.134-.367zm3.276 1.402l.03.664a1.925 1.925 0 0 1 1.581-.762c1.117 0 1.68.63 1.69 1.89v3.491h-.904v-3.496c-.003-.381-.09-.663-.26-.845-.172-.182-.438-.273-.8-.273a1.3 1.3 0 0 0-.77.234 1.592 1.592 0 0 0-.518.615v3.765h-.904v-5.283zm6.855 5.381c-.716 0-1.298-.236-1.748-.706-.449-.47-.673-1.1-.673-1.887v-.166c0-.524.1-.992.3-1.404.2-.412.48-.734.84-.967.36-.233.75-.349 1.17-.349.686 0 1.22.226 1.6.679.382.452.572 1.1.572 1.943v.376h-3.58c.014.521.166.942.458 1.262.29.321.661.481 1.11.481.32 0 .59-.065.81-.195.222-.13.416-.303.582-.518l.552.43c-.443.68-1.107 1.02-1.993 1.02zm-.112-4.737c-.364 0-.67.133-.918.398-.247.266-.4.637-.459 1.116h2.647v-.068c-.026-.46-.15-.815-.371-1.067-.222-.253-.521-.379-.899-.379z" fill="#757575"/><path d="M699.112 103.469l2.79 6.96 2.788-6.96h1.46V112h-1.126v-3.322l.106-3.586-2.8 6.908h-.862l-2.795-6.89.111 3.568V112h-1.125v-8.531zm12.768 7.904c-.422.496-1.041.744-1.857.744-.676 0-1.191-.196-1.544-.589-.354-.392-.533-.973-.537-1.743v-4.125h1.084v4.096c0 .96.391 1.441 1.172 1.441.828 0 1.38-.308 1.653-.926v-4.61h1.084V112h-1.032zm2.795-8.373h1.084v9h-1.084zm4.289 1.125v1.535h1.183v.838h-1.183v3.932c0 .254.053.444.158.571.106.127.285.19.54.19.124 0 .296-.023.515-.07V112a3.143 3.143 0 0 1-.832.117c-.485 0-.85-.146-1.096-.44-.246-.292-.37-.708-.37-1.247v-3.932h-1.153v-.838h1.154v-1.535zM722.59 112h-1.083v-6.34h1.084zm-1.171-8.021a.65.65 0 0 1 .161-.446c.107-.12.267-.181.478-.181.21 0 .37.06.48.181a.64.64 0 0 1 .164.446.619.619 0 0 1-.164.439c-.11.117-.27.176-.48.176-.211 0-.37-.059-.478-.176a.626.626 0 0 1-.161-.44zm9.176 4.57h-2.004V112h-1.131v-8.531h2.824c.961 0 1.7.219 2.218.656.518.438.776 1.074.776 1.91 0 .531-.143.994-.43 1.389-.287.394-.687.69-1.199.885l2.004 3.62V112h-1.207zm-2.004-.92h1.728c.559 0 1.003-.145 1.333-.434.33-.289.495-.675.495-1.16 0-.527-.157-.931-.471-1.213-.315-.281-.769-.424-1.363-.427h-1.722zm8.724 4.488c-.859 0-1.558-.282-2.097-.846-.54-.565-.809-1.32-.809-2.265v-.2c0-.628.12-1.19.36-1.684s.577-.88 1.008-1.16c.432-.28.9-.419 1.404-.419.824 0 1.464.271 1.921.814.458.543.686 1.32.686 2.332v.452h-4.295c.016.625.198 1.13.548 1.514.35.385.794.577 1.333.577.383 0 .707-.078.973-.234.265-.156.498-.363.697-.621l.662.516c-.531.816-1.328 1.224-2.39 1.224zm-.134-5.683c-.438 0-.805.159-1.102.477-.297.319-.48.765-.55 1.339h3.175v-.082c-.031-.55-.18-.978-.445-1.28-.266-.303-.625-.454-1.078-.454zm3.603 2.343c0-.988.229-1.774.686-2.358.457-.584 1.062-.876 1.816-.876.774 0 1.377.273 1.81.82l.053-.703h.99v6.188c0 .82-.243 1.466-.729 1.94-.486.472-1.14.708-1.96.708a3.26 3.26 0 0 1-1.342-.293c-.437-.195-.771-.463-1.002-.803l.563-.65c.465.574 1.033.861 1.705.861.527 0 .938-.148 1.233-.445.295-.297.443-.715.443-1.254v-.545c-.434.5-1.026.75-1.776.75-.742 0-1.342-.299-1.801-.896-.46-.598-.689-1.412-.689-2.444zm1.09.123c0 .715.146 1.277.44 1.685.292.408.703.612 1.23.612.683 0 1.186-.31 1.506-.931v-2.895c-.332-.605-.83-.908-1.494-.908-.528 0-.94.205-1.237.615-.296.41-.445 1.018-.445 1.822zm7.078 3.1h-1.084v-6.34h1.084zm-1.172-8.021a.65.65 0 0 1 .161-.446c.108-.12.267-.181.478-.181.21 0 .371.06.48.181a.64.64 0 0 1 .164.446.62.62 0 0 1-.164.439c-.109.117-.27.176-.48.176-.211 0-.37-.059-.478-.176a.626.626 0 0 1-.16-.44zm2.62 4.792c0-.62.121-1.18.366-1.675a2.732 2.732 0 0 1 1.02-1.149c.435-.27.932-.404 1.49-.404.864 0 1.562.299 2.095.896.533.598.8 1.393.8 2.385v.076c0 .618-.118 1.171-.355 1.662-.236.49-.574.872-1.013 1.145-.44.273-.945.41-1.515.41-.86 0-1.556-.299-2.089-.896-.533-.598-.8-1.389-.8-2.373zm1.09.13c0 .703.162 1.267.489 1.693.326.426.762.638 1.31.638.55 0 .987-.215 1.312-.647.324-.432.486-1.036.486-1.814 0-.695-.165-1.258-.495-1.69a1.574 1.574 0 0 0-1.316-.647c-.535 0-.966.212-1.295.638-.328.426-.492 1.035-.492 1.828zm7.066-3.241l.035.797c.484-.61 1.117-.914 1.898-.914 1.34 0 2.016.756 2.028 2.268V112h-1.084v-4.195c-.004-.457-.109-.795-.314-1.014-.205-.219-.524-.328-.958-.328-.351 0-.66.094-.926.281a1.91 1.91 0 0 0-.62.738V112h-1.085v-6.34zM712.686 126v-8.531h2.789c.925 0 1.622.191 2.088.574.467.383.7.95.7 1.7 0 .398-.113.75-.34 1.057a2.202 2.202 0 0 1-.925.712c.461.129.825.374 1.093.735.267.361.401.792.401 1.292 0 .766-.248 1.367-.744 1.805-.496.437-1.197.656-2.104.656zm1.125-3.99v3.07h1.857c.523 0 .937-.136 1.24-.407.302-.272.453-.646.453-1.122 0-1.028-.558-1.541-1.675-1.541zm0-.903h1.699c.492 0 .885-.123 1.18-.369.295-.246.443-.58.443-1.002 0-.468-.137-.81-.41-1.022-.274-.213-.69-.32-1.248-.32h-1.664zm10.089 4.266c-.421.496-1.04.744-1.857.744-.676 0-1.19-.196-1.544-.589-.354-.392-.532-.973-.536-1.743v-4.125h1.084v4.096c0 .96.39 1.441 1.172 1.441.828 0 1.379-.308 1.652-.926v-4.61h1.084V126h-1.031zm5.244-.141c.387 0 .725-.117 1.014-.351.29-.235.45-.527.48-.88h1.026c-.02.364-.144.71-.375 1.038a2.47 2.47 0 0 1-.923.785 2.663 2.663 0 0 1-1.221.293c-.864 0-1.55-.288-2.06-.864-.51-.576-.765-1.364-.765-2.364v-.182c0-.617.114-1.166.34-1.646.227-.48.552-.854.976-1.12.424-.265.925-.398 1.503-.398.71 0 1.301.213 1.772.639.47.425.722.978.753 1.658h-1.025a1.494 1.494 0 0 0-.466-1.01 1.45 1.45 0 0 0-1.034-.396c-.551 0-.978.198-1.28.594-.303.397-.455.97-.455 1.72v.205c0 .73.15 1.293.452 1.688.3.394.73.591 1.288.591zm5.508-2.168l-.68.71V126h-1.083v-9h1.084v5.443l.58-.697 1.974-2.086h1.319l-2.467 2.649 2.754 3.691h-1.272zm6.827 3.053c-.86 0-1.56-.282-2.098-.846-.54-.565-.809-1.32-.809-2.265v-.2c0-.628.12-1.19.36-1.684s.577-.88 1.008-1.16c.432-.28.9-.419 1.404-.419.824 0 1.465.271 1.922.814.457.543.685 1.32.685 2.332v.452h-4.295c.016.625.199 1.13.548 1.514.35.385.794.577 1.333.577.383 0 .707-.078.973-.234.265-.156.498-.363.697-.621l.662.516c-.531.816-1.328 1.224-2.39 1.224zm-.135-5.683c-.438 0-.805.159-1.102.477-.297.319-.48.765-.55 1.339h3.175v-.082c-.031-.55-.18-.978-.445-1.28-.266-.303-.625-.454-1.078-.454zm5.332-2.309v1.535h1.183v.838h-1.183v3.932c0 .254.053.444.158.571.105.127.285.19.54.19.124 0 .296-.023.515-.07V126a3.143 3.143 0 0 1-.832.117c-.485 0-.85-.146-1.096-.44-.246-.292-.37-.708-.37-1.247v-3.932h-1.154v-.838h1.155v-1.535z" fill="#212121"/><path d="M737.904 198.256h.679c.426-.007.762-.119 1.006-.337.244-.218.366-.513.366-.884 0-.833-.415-1.25-1.245-1.25-.39 0-.702.112-.935.335-.233.223-.35.518-.35.886h-.902c0-.563.205-1.031.617-1.404.412-.373.935-.559 1.57-.559.67 0 1.196.177 1.577.532.381.355.571.848.571 1.48 0 .309-.1.608-.3.898-.2.29-.473.506-.818.65.39.123.693.328.906.615.213.286.32.636.32 1.05 0 .638-.208 1.144-.625 1.518-.417.374-.959.562-1.626.562-.668 0-1.21-.181-1.629-.542-.418-.362-.627-.839-.627-1.431h.908c0 .374.122.674.366.898.245.225.572.337.982.337.436 0 .77-.114 1-.341.232-.228.347-.555.347-.982 0-.413-.126-.73-.38-.952-.254-.221-.62-.335-1.099-.342h-.679zm8.76.962c0 1.058-.18 1.844-.542 2.358-.361.514-.926.772-1.694.772-.759 0-1.32-.252-1.685-.755-.364-.503-.553-1.254-.566-2.253v-1.206c0-1.045.18-1.821.542-2.33.361-.507.927-.761 1.699-.761.765 0 1.328.245 1.69.735.36.49.546 1.246.556 2.268zm-.903-1.236c0-.765-.108-1.322-.322-1.672-.215-.35-.555-.525-1.021-.525-.462 0-.8.174-1.01.523-.212.348-.321.883-.328 1.606v1.445c0 .769.112 1.336.335 1.702.223.366.56.55 1.013.55.446 0 .777-.173.993-.518.217-.345.33-.889.34-1.631zm4.409 1.582c0-.81.192-1.462.576-1.955.384-.493.887-.74 1.509-.74.618 0 1.108.212 1.47.635v-2.754h.903v7.5h-.83l-.044-.566c-.361.442-.864.664-1.509.664-.612 0-1.11-.251-1.496-.752-.386-.502-.58-1.156-.58-1.963zm.903.103c0 .599.124 1.068.371 1.406.248.339.59.508 1.026.508.573 0 .99-.257 1.255-.771v-2.427c-.27-.498-.686-.747-1.245-.747-.443 0-.788.17-1.036.512-.247.342-.37.848-.37 1.519zm8.218 2.583c-.052-.104-.094-.29-.127-.557-.42.437-.921.655-1.504.655-.52 0-.948-.148-1.282-.442a1.43 1.43 0 0 1-.5-1.12c0-.551.21-.978.627-1.283.419-.304 1.007-.456 1.765-.456h.88v-.415c0-.316-.095-.567-.284-.755-.189-.187-.467-.28-.835-.28-.322 0-.592.081-.81.244-.218.163-.327.36-.327.59h-.909c0-.263.094-.518.281-.764.187-.245.441-.44.762-.583.32-.143.673-.215 1.057-.215.609 0 1.086.152 1.43.457.346.304.525.723.538 1.257v2.432c0 .485.062.87.185 1.157v.078zm-1.499-.688c.283 0 .552-.074.806-.22.254-.147.438-.337.551-.572v-1.083h-.708c-1.106 0-1.66.323-1.66.971 0 .283.095.505.283.664.19.16.432.24.728.24zm5.332-.635l1.23-3.96h.967l-2.124 6.098c-.328.88-.851 1.319-1.567 1.319l-.171-.015-.337-.063v-.733l.244.02c.306 0 .545-.062.716-.186.17-.123.311-.35.422-.678l.2-.538-1.885-5.224h.987zm6.079-.078a.665.665 0 0 0-.276-.57c-.184-.134-.504-.25-.962-.348-.457-.098-.82-.215-1.089-.352-.268-.137-.467-.3-.595-.488a1.168 1.168 0 0 1-.193-.674c0-.433.183-.8.55-1.099.365-.3.833-.449 1.403-.449.599 0 1.085.155 1.457.464.373.31.56.705.56 1.187h-.909c0-.248-.105-.461-.314-.64-.21-.18-.475-.269-.794-.269-.329 0-.586.072-.772.215a.676.676 0 0 0-.278.562.55.55 0 0 0 .259.493c.173.11.484.216.935.317.45.101.816.222 1.096.362.28.14.488.308.623.505s.202.437.202.72c0 .472-.188.85-.566 1.135-.378.285-.867.428-1.47.428a2.66 2.66 0 0 1-1.123-.225 1.826 1.826 0 0 1-.764-.627 1.512 1.512 0 0 1-.276-.872h.904a.935.935 0 0 0 .363.72c.227.178.525.266.896.266.342 0 .616-.069.823-.207a.638.638 0 0 0 .31-.554zm-57.148-44.105c-.088.752-.366 1.332-.833 1.74-.467.41-1.088.614-1.863.614-.84 0-1.513-.301-2.019-.904-.506-.602-.759-1.408-.759-2.417v-.683c0-.661.118-1.242.354-1.743.236-.502.57-.887 1.004-1.155.432-.269.934-.403 1.503-.403.756 0 1.361.21 1.817.632.456.422.72 1.005.796 1.75h-.943c-.081-.566-.258-.976-.53-1.23-.271-.254-.651-.38-1.14-.38-.599 0-1.068.22-1.408.664-.34.442-.51 1.072-.51 1.89v.688c0 .771.16 1.385.483 1.84.322.456.773.684 1.352.684.521 0 .92-.118 1.2-.354.277-.236.462-.647.553-1.233zm1.215-5.244h.903v7.5h-.903zm2.11 4.81c0-.518.102-.983.305-1.397.204-.413.487-.732.85-.957a2.312 2.312 0 0 1 1.242-.337c.72 0 1.302.25 1.746.747.444.498.666 1.16.666 1.988v.063c0 .514-.098.976-.295 1.384a2.243 2.243 0 0 1-.845.955 2.34 2.34 0 0 1-1.262.342c-.716 0-1.296-.25-1.74-.747-.445-.498-.667-1.158-.667-1.978zm.908.107c0 .586.136 1.056.408 1.411.272.355.635.532 1.091.532.46 0 .824-.18 1.094-.54.27-.359.405-.863.405-1.51 0-.58-.137-1.05-.412-1.41a1.314 1.314 0 0 0-1.097-.539c-.446 0-.805.178-1.079.533-.273.354-.41.862-.41 1.523zm8.296 2.061c-.352.413-.867.62-1.548.62-.563 0-.992-.164-1.286-.491-.295-.327-.444-.811-.447-1.453v-3.437h.903v3.413c0 .8.326 1.201.977 1.201.69 0 1.149-.257 1.377-.771v-3.843h.903V159h-.86zm2.031-2.164c0-.81.192-1.462.576-1.955.385-.493.887-.74 1.51-.74.618 0 1.108.212 1.469.635V151.5h.903v7.5h-.83l-.044-.566c-.361.442-.864.664-1.509.664-.612 0-1.11-.251-1.496-.752-.386-.502-.579-1.156-.579-1.963zm.904.103c0 .599.123 1.068.37 1.406.248.339.59.508 1.026.508.573 0 .991-.257 1.255-.771v-2.427c-.27-.498-.685-.747-1.245-.747-.443 0-.788.17-1.035.512-.248.342-.371.848-.371 1.519zm9.668-.586c-.804-.231-1.39-.515-1.756-.852a1.628 1.628 0 0 1-.55-1.248c0-.56.225-1.023.672-1.389.448-.366 1.03-.549 1.746-.549.488 0 .923.094 1.306.283.382.189.679.45.889.781.21.332.315.695.315 1.09h-.943c0-.43-.136-.768-.41-1.014-.273-.246-.66-.369-1.157-.369-.462 0-.823.102-1.082.306-.259.203-.388.485-.388.847 0 .29.123.534.369.735.245.2.664.383 1.255.549.59.166 1.053.35 1.386.55.334.2.581.433.742.7.162.267.242.581.242.942 0 .577-.224 1.038-.674 1.385-.449.346-1.05.52-1.801.52a3.34 3.34 0 0 1-1.367-.281c-.424-.187-.75-.444-.98-.77a1.877 1.877 0 0 1-.344-1.108h.943c0 .43.158.77.476 1.019.317.249.741.373 1.272.373.494 0 .874-.1 1.137-.303a.983.983 0 0 0 .396-.825c0-.348-.122-.618-.366-.808-.245-.19-.687-.378-1.328-.564zm4.921-3.393v1.279h.987v.698h-.987v3.276c0 .212.044.37.132.476.088.106.238.16.45.16.104 0 .247-.02.43-.06V159a2.618 2.618 0 0 1-.694.098c-.404 0-.708-.122-.913-.367-.205-.244-.308-.59-.308-1.04v-3.276h-.962v-.698h.962v-1.28zm1.661 3.872c0-.518.101-.983.305-1.397.203-.413.486-.732.85-.957a2.313 2.313 0 0 1 1.242-.337c.72 0 1.301.25 1.746.747.444.498.666 1.16.666 1.988v.063c0 .514-.098.976-.295 1.384a2.243 2.243 0 0 1-.845.955 2.34 2.34 0 0 1-1.262.342c-.716 0-1.297-.25-1.74-.747-.445-.498-.667-1.158-.667-1.978zm.908.107c0 .586.136 1.056.408 1.411.271.355.635.532 1.09.532.46 0 .824-.18 1.095-.54.27-.359.405-.863.405-1.51 0-.58-.138-1.05-.413-1.41a1.312 1.312 0 0 0-1.096-.539 1.3 1.3 0 0 0-1.08.533c-.273.354-.41.862-.41 1.523zm7.588-1.89a2.708 2.708 0 0 0-.445-.034c-.592 0-.994.252-1.206.757V159h-.903v-5.283h.879l.014.61c.297-.472.717-.708 1.26-.708.176 0 .31.023.4.069zm3.94 4.473c-.052-.104-.094-.29-.127-.557-.42.437-.921.655-1.504.655-.52 0-.948-.148-1.281-.442a1.43 1.43 0 0 1-.501-1.12c0-.551.21-.978.627-1.283.419-.304 1.007-.456 1.766-.456h.879v-.415c0-.316-.095-.567-.284-.755-.188-.187-.467-.28-.835-.28-.322 0-.592.081-.81.244-.218.163-.327.36-.327.59h-.909c0-.263.094-.518.281-.764.187-.245.441-.44.762-.583.32-.143.673-.215 1.057-.215.609 0 1.086.152 1.43.457.346.304.525.723.538 1.257v2.432c0 .485.062.87.185 1.157V159zm-1.499-.688c.283 0 .552-.074.806-.22a1.33 1.33 0 0 0 .552-.572v-1.083h-.708c-1.107 0-1.66.323-1.66.971 0 .283.094.505.283.664.188.16.43.24.727.24zm3.462-1.998c0-.823.19-1.478.571-1.965.381-.487.886-.73 1.514-.73.644 0 1.147.228 1.509.684l.044-.586h.825v5.156c0 .684-.203 1.222-.608 1.616-.405.394-.95.591-1.633.591-.381 0-.754-.081-1.119-.244-.364-.163-.642-.386-.834-.669l.468-.542c.388.479.861.718 1.421.718.44 0 .782-.124 1.028-.371.246-.248.369-.596.369-1.045v-.454c-.362.416-.855.625-1.48.625-.618 0-1.119-.25-1.501-.747-.383-.498-.574-1.177-.574-2.037zm.908.103c0 .596.122 1.064.366 1.404.245.34.586.51 1.026.51.57 0 .988-.259 1.255-.776v-2.412c-.277-.505-.692-.757-1.245-.757-.44 0-.783.17-1.03.512-.248.342-.372.848-.372 1.519zm7.11 2.681c-.717 0-1.3-.236-1.749-.706-.449-.47-.673-1.1-.673-1.887v-.166c0-.524.1-.992.3-1.404.2-.412.48-.734.84-.967a2.12 2.12 0 0 1 1.17-.349c.686 0 1.22.226 1.6.679.382.452.572 1.1.572 1.943v.376h-3.579c.013.521.165.942.457 1.262.29.321.661.481 1.11.481.32 0 .59-.065.81-.195.222-.13.416-.303.582-.518l.552.43c-.443.68-1.107 1.02-1.992 1.02zm-.113-4.737c-.364 0-.67.133-.918.398-.247.266-.4.637-.459 1.116h2.647v-.068c-.026-.46-.15-.815-.371-1.067-.222-.253-.521-.379-.899-.379zm-295.518 2.383c-.088.752-.366 1.332-.833 1.74-.467.41-1.088.614-1.863.614-.84 0-1.512-.301-2.019-.904-.506-.602-.759-1.408-.759-2.417v-.683c0-.661.118-1.242.354-1.743.236-.502.57-.887 1.003-1.155.433-.269.935-.403 1.504-.403.756 0 1.361.21 1.817.632.455.422.72 1.005.796 1.75h-.943c-.081-.566-.258-.976-.53-1.23-.271-.254-.651-.38-1.14-.38-.599 0-1.068.22-1.408.664-.34.442-.51 1.072-.51 1.89v.688c0 .771.16 1.385.483 1.84.322.456.773.684 1.352.684.521 0 .92-.118 1.2-.354.277-.236.462-.647.553-1.233zm.898-.434c0-.518.102-.983.305-1.397.204-.413.487-.732.85-.957a2.313 2.313 0 0 1 1.243-.337c.719 0 1.3.25 1.745.747.445.498.667 1.16.667 1.988v.063c0 .514-.099.976-.296 1.384a2.243 2.243 0 0 1-.844.955 2.34 2.34 0 0 1-1.263.342c-.716 0-1.296-.25-1.74-.747-.445-.498-.667-1.158-.667-1.978zm.908.107c0 .586.136 1.056.408 1.411.272.355.636.532 1.091.532.46 0 .824-.18 1.094-.54.27-.359.405-.863.405-1.51 0-.58-.137-1.05-.412-1.41a1.312 1.312 0 0 0-1.096-.539 1.3 1.3 0 0 0-1.08.533c-.273.354-.41.862-.41 1.523zm5.884-2.7l.025.586c.387-.456.91-.684 1.567-.684.739 0 1.242.283 1.509.85.175-.254.404-.46.686-.615.281-.157.614-.235.998-.235 1.16 0 1.748.614 1.768 1.841V159h-.903v-3.486c0-.378-.087-.66-.26-.847-.172-.188-.462-.281-.868-.281-.336 0-.614.1-.835.3-.222.2-.35.47-.386.808V159h-.908v-3.462c0-.768-.376-1.152-1.128-1.152-.593 0-.998.252-1.216.757V159h-.903v-5.283zm12.378 2.7c0 .804-.184 1.452-.552 1.943-.368.492-.866.738-1.494.738-.641 0-1.146-.204-1.514-.61v2.543h-.903v-7.314h.825l.044.586c.368-.456.88-.684 1.534-.684.634 0 1.136.24 1.506.718.37.478.554 1.144.554 1.997zm-.903-.103c0-.595-.127-1.066-.381-1.41-.254-.346-.602-.518-1.045-.518-.547 0-.957.242-1.23.727v2.525c.27.481.683.722 1.24.722.433 0 .777-.171 1.032-.515.256-.343.384-.853.384-1.53zm5.312 2.164c-.351.413-.867.62-1.548.62-.563 0-.992-.164-1.286-.491-.295-.327-.444-.811-.447-1.453v-3.437h.903v3.413c0 .8.326 1.201.977 1.201.69 0 1.149-.257 1.377-.771v-3.843h.903V159h-.86zm3.477-6.04v1.279h.986v.698h-.986v3.276c0 .212.044.37.132.476.087.106.237.16.449.16.104 0 .247-.02.43-.06V159a2.619 2.619 0 0 1-.694.098c-.404 0-.708-.122-.913-.367-.205-.244-.308-.59-.308-1.04v-3.276h-.961v-.698h.961v-1.28zm4.233 6.66c-.716 0-1.299-.236-1.748-.706-.45-.47-.674-1.1-.674-1.887v-.166c0-.524.1-.992.3-1.404.2-.412.48-.734.84-.967a2.12 2.12 0 0 1 1.17-.349c.687 0 1.22.226 1.601.679.381.452.572 1.1.572 1.943v.376h-3.58c.014.521.166.942.457 1.262.291.321.662.481 1.111.481.319 0 .59-.065.81-.195.222-.13.416-.303.582-.518l.551.43c-.442.68-1.106 1.02-1.992 1.02zm-.112-4.737c-.365 0-.67.133-.918.398-.248.266-.4.637-.46 1.116h2.647v-.068c-.026-.46-.15-.815-.37-1.067-.222-.253-.522-.379-.9-.379zm9.853 1.353h-3.08v2.52h3.578V159h-4.516v-7.11h4.468v.772h-3.53v2.285h3.08zm2.378-1.997l.03.664a1.925 1.925 0 0 1 1.582-.762c1.116 0 1.68.63 1.69 1.89V159h-.904v-3.496c-.003-.381-.09-.663-.261-.845-.171-.182-.437-.273-.799-.273-.293 0-.55.078-.771.234a1.592 1.592 0 0 0-.518.615V159h-.903v-5.283zm4.449 2.597c0-.823.19-1.478.57-1.965.382-.487.886-.73 1.515-.73.644 0 1.147.228 1.508.684l.044-.586h.825v5.156c0 .684-.202 1.222-.607 1.616-.406.394-.95.591-1.634.591-.38 0-.753-.081-1.118-.244-.365-.163-.643-.386-.835-.669l.469-.542c.387.479.86.718 1.42.718.44 0 .783-.124 1.029-.371.245-.248.368-.596.368-1.045v-.454c-.361.416-.854.625-1.48.625-.618 0-1.118-.25-1.5-.747-.383-.498-.574-1.177-.574-2.037zm.908.103c0 .596.122 1.064.366 1.404.244.34.586.51 1.025.51.57 0 .988-.259 1.255-.776v-2.412c-.276-.505-.692-.757-1.245-.757-.44 0-.783.17-1.03.512-.248.342-.371.848-.371 1.519zm5.898 2.583h-.903v-5.283h.903zm-.976-6.685a.54.54 0 0 1 .134-.37c.09-.102.222-.152.398-.152.176 0 .31.05.4.151a.535.535 0 0 1 .137.371.516.516 0 0 1-.137.367c-.09.097-.224.146-.4.146-.176 0-.309-.049-.398-.146a.521.521 0 0 1-.134-.367zm3.276 1.402l.03.664a1.925 1.925 0 0 1 1.581-.762c1.117 0 1.68.63 1.69 1.89V159h-.904v-3.496c-.003-.381-.09-.663-.26-.845-.172-.182-.438-.273-.8-.273a1.3 1.3 0 0 0-.77.234 1.592 1.592 0 0 0-.518.615V159h-.904v-5.283zm6.855 5.381c-.716 0-1.298-.236-1.748-.706-.449-.47-.673-1.1-.673-1.887v-.166c0-.524.1-.992.3-1.404.2-.412.48-.734.84-.967a2.12 2.12 0 0 1 1.17-.349c.686 0 1.22.226 1.6.679.382.452.572 1.1.572 1.943v.376h-3.58c.014.521.166.942.458 1.262.29.321.661.481 1.11.481.32 0 .59-.065.81-.195.222-.13.416-.303.582-.518l.552.43c-.443.68-1.107 1.02-1.993 1.02zm-.112-4.737c-.364 0-.67.133-.918.398-.247.266-.4.637-.459 1.116h2.647v-.068c-.026-.46-.15-.815-.371-1.067-.222-.253-.521-.379-.899-.379z" fill="#757575"/><path d="M269.113 242.969h1.131v6.04c0 .817-.245 1.456-.735 1.917-.49.46-1.144.691-1.96.691-.848 0-1.508-.217-1.98-.65-.473-.434-.71-1.041-.71-1.822h1.125c0 .488.134.869.402 1.142.267.274.655.41 1.163.41.465 0 .84-.146 1.128-.44.287-.292.432-.702.436-1.23zm5.508 8.648c-.86 0-1.558-.282-2.098-.846-.539-.565-.808-1.32-.808-2.265v-.2c0-.628.12-1.19.36-1.684s.576-.88 1.008-1.16c.432-.28.9-.419 1.403-.419.825 0 1.465.271 1.922.814.457.543.686 1.32.686 2.332v.452h-4.295c.015.625.198 1.13.548 1.514.35.385.794.577 1.333.577.382 0 .707-.078.972-.234.266-.156.498-.363.698-.621l.662.516c-.532.816-1.328 1.224-2.39 1.224zm-.135-5.683c-.437 0-.804.159-1.101.477-.297.319-.48.765-.551 1.339h3.176v-.082c-.031-.55-.18-.978-.446-1.28-.265-.303-.625-.454-1.078-.454zm4.887-.774l.035.797c.485-.61 1.117-.914 1.899-.914 1.34 0 2.015.756 2.027 2.268v4.189h-1.084v-4.195c-.004-.457-.108-.795-.313-1.014-.206-.219-.525-.328-.959-.328-.351 0-.66.094-.925.281a1.91 1.91 0 0 0-.621.738v4.518h-1.084v-6.34zm7.365 3.404l-.68.71v2.226h-1.083v-9h1.084v5.443l.58-.697 1.974-2.086h1.319l-2.467 2.649 2.754 3.691h-1.272zm5.49 2.936h-1.083v-6.34h1.084zm-1.171-8.021a.65.65 0 0 1 .16-.446c.108-.12.267-.181.478-.181.211 0 .371.06.48.181a.64.64 0 0 1 .165.446.62.62 0 0 1-.164.439c-.11.117-.27.176-.48.176-.212 0-.37-.059-.478-.176a.626.626 0 0 1-.161-.44zm3.931 1.681l.035.797c.485-.61 1.118-.914 1.899-.914 1.34 0 2.015.756 2.027 2.268v4.189h-1.084v-4.195c-.004-.457-.108-.795-.313-1.014-.205-.219-.525-.328-.958-.328-.352 0-.66.094-.926.281a1.91 1.91 0 0 0-.621.738v4.518h-1.084v-6.34zm9.287 4.658c0-.293-.11-.52-.33-.682-.221-.162-.606-.302-1.155-.42-.549-.116-.984-.257-1.307-.421-.322-.164-.56-.36-.714-.586a1.402 1.402 0 0 1-.232-.809c0-.52.22-.959.66-1.318.439-.36 1-.539 1.684-.539.719 0 1.302.185 1.749.557.447.37.67.845.67 1.423h-1.09c0-.296-.125-.552-.377-.767-.252-.215-.57-.322-.952-.322-.395 0-.703.086-.926.257a.812.812 0 0 0-.334.674c0 .262.104.46.31.592.208.133.582.26 1.123.38.54.122.98.267 1.315.434.336.168.585.37.747.607.162.236.243.524.243.864 0 .567-.226 1.02-.68 1.363-.452.341-1.04.512-1.763.512-.508 0-.957-.09-1.348-.27a2.193 2.193 0 0 1-.917-.752 1.815 1.815 0 0 1-.33-1.046h1.083c.02.363.165.651.437.864.271.213.63.32 1.075.32.41 0 .74-.084.987-.25.248-.166.372-.387.372-.665zm7.09-6.849l2.79 6.96 2.788-6.96h1.46v8.531h-1.126v-3.322l.106-3.586-2.801 6.908h-.861l-2.795-6.89.111 3.568v3.322h-1.125v-8.531zm12.768 8.531c-.063-.125-.113-.348-.153-.668-.503.523-1.105.785-1.804.785-.625 0-1.138-.177-1.538-.53-.4-.354-.6-.802-.6-1.345 0-.66.25-1.173.752-1.538s1.208-.548 2.118-.548h1.055v-.498c0-.379-.113-.68-.34-.905-.226-.225-.56-.337-1.002-.337-.387 0-.71.098-.973.293-.261.195-.392.432-.392.709h-1.09c0-.316.112-.622.337-.917a2.3 2.3 0 0 1 .914-.7 3.075 3.075 0 0 1 1.269-.258c.73 0 1.302.183 1.716.548.414.365.63.868.645 1.509v2.918c0 .582.074 1.044.223 1.388v.094zm-1.799-.826c.34 0 .662-.088.967-.264.304-.176.525-.404.662-.685v-1.301h-.85c-1.328 0-1.992.388-1.992 1.166 0 .34.113.605.34.797.226.191.517.287.873.287zm8.104-.856c0-.293-.11-.52-.332-.682-.22-.162-.605-.302-1.154-.42-.549-.116-.984-.257-1.306-.421-.323-.164-.561-.36-.715-.586a1.402 1.402 0 0 1-.232-.809c0-.52.22-.959.66-1.318.439-.36 1-.539 1.684-.539.719 0 1.302.185 1.749.557.447.37.67.845.67 1.423h-1.089c0-.296-.126-.552-.378-.767-.252-.215-.57-.322-.952-.322-.395 0-.703.086-.926.257a.812.812 0 0 0-.334.674c0 .262.104.46.31.592.208.133.582.26 1.123.38.54.122.98.267 1.315.434.336.168.585.37.747.607.162.236.243.524.243.864 0 .567-.226 1.02-.68 1.363-.452.341-1.04.512-1.763.512-.508 0-.957-.09-1.348-.27a2.193 2.193 0 0 1-.917-.752 1.815 1.815 0 0 1-.33-1.046h1.083c.02.363.165.651.437.864.271.213.63.32 1.075.32.41 0 .74-.084.987-.25.248-.166.373-.387.373-.665zm3.966-6.193v1.535h1.184v.838h-1.184v3.932c0 .254.053.444.159.571.105.127.285.19.539.19.125 0 .296-.023.515-.07v.879a3.143 3.143 0 0 1-.832.117c-.484 0-.85-.146-1.096-.44-.246-.292-.369-.708-.369-1.247v-3.932h-1.154v-.838h1.154v-1.535zm5.08 7.992c-.859 0-1.558-.282-2.097-.846-.54-.565-.809-1.32-.809-2.265v-.2c0-.628.12-1.19.36-1.684a2.81 2.81 0 0 1 1.008-1.16c.432-.28.9-.419 1.404-.419.824 0 1.464.271 1.921.814.457.543.686 1.32.686 2.332v.452h-4.295c.016.625.198 1.13.548 1.514.35.385.794.577 1.333.577.383 0 .707-.078.973-.234.265-.156.498-.363.697-.621l.662.516c-.531.816-1.328 1.224-2.39 1.224zm-.134-5.683c-.438 0-.805.159-1.102.477-.297.319-.48.765-.55 1.339h3.175v-.082c-.031-.55-.18-.978-.445-1.28-.266-.303-.625-.454-1.078-.454zm6.925.199a3.25 3.25 0 0 0-.533-.041c-.71 0-1.193.303-1.447.908v4.5h-1.084v-6.34h1.055l.017.733c.356-.567.86-.85 1.512-.85.21 0 .371.027.48.082z" fill="#212121"/><path d="M287.555 289.244c-.088.752-.366 1.332-.833 1.74-.467.41-1.088.614-1.863.614-.84 0-1.512-.301-2.019-.904-.506-.602-.759-1.408-.759-2.417v-.683c0-.661.118-1.242.354-1.743.236-.502.57-.887 1.003-1.155.433-.269.935-.403 1.504-.403.756 0 1.361.21 1.817.632.456.422.72 1.005.796 1.75h-.943c-.081-.566-.258-.976-.53-1.23-.271-.254-.651-.38-1.14-.38-.599 0-1.068.22-1.408.663-.34.443-.51 1.073-.51 1.89v.689c0 .771.16 1.385.483 1.84.322.456.773.684 1.352.684.521 0 .92-.118 1.2-.354.277-.236.462-.647.553-1.233zm.898-.434c0-.518.102-.983.305-1.397.204-.413.487-.732.85-.957a2.313 2.313 0 0 1 1.243-.337c.719 0 1.3.25 1.745.747.445.498.667 1.16.667 1.988v.063c0 .514-.099.976-.296 1.384a2.243 2.243 0 0 1-.844.955 2.34 2.34 0 0 1-1.263.342c-.716 0-1.296-.25-1.74-.747-.445-.498-.667-1.158-.667-1.978zm.908.107c0 .586.136 1.056.408 1.411.272.355.636.532 1.091.532.46 0 .824-.18 1.094-.54.27-.359.405-.863.405-1.51 0-.58-.137-1.05-.412-1.41a1.312 1.312 0 0 0-1.096-.539 1.3 1.3 0 0 0-1.08.533c-.273.354-.41.862-.41 1.523zm5.884-2.7l.025.586c.387-.456.91-.684 1.567-.684.739 0 1.242.283 1.509.85.175-.254.404-.46.686-.615.281-.157.614-.235.998-.235 1.16 0 1.748.614 1.768 1.841v3.54h-.903v-3.486c0-.378-.087-.66-.26-.848-.172-.187-.462-.28-.868-.28-.336 0-.614.1-.835.3-.222.2-.35.47-.386.808v3.506h-.908v-3.462c0-.768-.376-1.152-1.128-1.152-.593 0-.998.252-1.216.757v3.857h-.903v-5.283zm12.378 2.7c0 .804-.184 1.452-.552 1.943-.368.492-.866.738-1.494.738-.641 0-1.146-.204-1.514-.61v2.543h-.903v-7.314h.825l.044.586c.368-.456.88-.684 1.534-.684.634 0 1.136.24 1.506.718.37.478.554 1.144.554 1.997zm-.903-.103c0-.595-.127-1.066-.381-1.41-.254-.346-.602-.518-1.045-.518-.547 0-.957.242-1.23.727v2.525c.27.481.683.722 1.24.722.433 0 .777-.171 1.032-.515.256-.343.384-.853.384-1.53zm5.312 2.164c-.351.413-.867.62-1.548.62-.563 0-.992-.164-1.286-.491-.295-.327-.444-.811-.447-1.453v-3.437h.903v3.413c0 .8.326 1.201.977 1.201.69 0 1.149-.257 1.377-.771v-3.843h.903v5.283h-.86zm3.477-6.04v1.279h.986v.698h-.986v3.276c0 .212.044.37.132.476.087.106.237.16.449.16.104 0 .247-.02.43-.06v.733a2.619 2.619 0 0 1-.694.098c-.403 0-.708-.122-.913-.367-.205-.244-.308-.59-.308-1.04v-3.276h-.961v-.698h.961v-1.28zm4.233 6.66c-.716 0-1.299-.236-1.748-.706-.45-.47-.674-1.1-.674-1.887v-.166c0-.524.1-.992.3-1.404.2-.412.48-.734.84-.967.36-.233.75-.349 1.17-.349.687 0 1.22.226 1.601.679.381.452.572 1.1.572 1.943v.376h-3.58c.014.521.166.942.457 1.262.291.321.662.481 1.111.481.319 0 .59-.065.81-.195.222-.13.416-.303.582-.518l.551.43c-.442.68-1.106 1.02-1.992 1.02zm-.112-4.737c-.365 0-.67.133-.918.398-.248.266-.4.637-.46 1.116h2.647v-.068c-.026-.46-.15-.815-.37-1.067-.222-.253-.522-.379-.9-.379zm9.853 1.353h-3.08v2.52h3.578v.766h-4.516v-7.11h4.468v.772h-3.53v2.285h3.08zm2.378-1.997l.03.664a1.925 1.925 0 0 1 1.582-.762c1.116 0 1.68.63 1.69 1.89v3.491h-.904v-3.496c-.003-.381-.09-.663-.261-.845-.171-.182-.437-.273-.799-.273-.293 0-.55.078-.771.234a1.591 1.591 0 0 0-.518.615v3.765h-.903v-5.283zm4.449 2.597c0-.823.19-1.478.57-1.965.382-.487.886-.73 1.515-.73.644 0 1.147.228 1.508.684l.044-.586h.825v5.156c0 .684-.202 1.222-.607 1.616-.406.394-.95.591-1.634.591-.38 0-.753-.081-1.118-.244-.365-.163-.643-.386-.835-.669l.469-.542c.387.479.86.718 1.42.718.44 0 .783-.124 1.029-.371.245-.248.368-.596.368-1.045v-.454c-.361.416-.854.625-1.48.625-.618 0-1.118-.25-1.5-.747-.383-.498-.574-1.177-.574-2.037zm.908.103c0 .596.122 1.064.366 1.404.244.34.586.51 1.025.51.57 0 .988-.259 1.255-.776v-2.412c-.276-.505-.691-.757-1.245-.757-.44 0-.783.17-1.03.512-.248.342-.371.848-.371 1.519zm5.898 2.583h-.903v-5.283h.903zm-.976-6.685a.54.54 0 0 1 .134-.37c.09-.102.222-.152.398-.152.176 0 .31.05.4.151a.535.535 0 0 1 .137.371.516.516 0 0 1-.137.367c-.09.097-.224.146-.4.146-.176 0-.309-.049-.398-.146a.521.521 0 0 1-.134-.367zm3.276 1.402l.03.664a1.925 1.925 0 0 1 1.581-.762c1.117 0 1.68.63 1.69 1.89v3.491h-.904v-3.496c-.003-.381-.09-.663-.26-.845-.172-.182-.438-.273-.8-.273a1.3 1.3 0 0 0-.77.234 1.592 1.592 0 0 0-.518.615v3.765h-.903v-5.283zm6.856 5.381c-.717 0-1.3-.236-1.749-.706-.449-.47-.673-1.1-.673-1.887v-.166c0-.524.1-.992.3-1.404.2-.412.48-.734.84-.967.36-.233.75-.349 1.17-.349.686 0 1.22.226 1.6.679.382.452.572 1.1.572 1.943v.376h-3.58c.014.521.166.942.457 1.262.292.321.662.481 1.111.481.32 0 .59-.065.81-.195.222-.13.416-.303.582-.518l.552.43c-.443.68-1.107 1.02-1.993 1.02zm-.113-4.737c-.364 0-.67.133-.918.398-.247.266-.4.637-.459 1.116h2.647v-.068c-.026-.46-.15-.815-.371-1.067-.222-.253-.521-.379-.899-.379zM101.863 41.891h.938V49h-.938zm6.665 5.254h-2.979L104.88 49h-.966l2.714-7.11h.82l2.72 7.11h-.961zm-2.695-.772h2.417l-1.211-3.325zm6.503-4.483l2.325 5.801 2.324-5.8h1.216V49h-.938v-2.769l.088-2.988L115.017 49h-.718l-2.329-5.742.093 2.973V49h-.938v-7.11z" fill="#757575"/><path d="M455.148 110.469h1.131v6.04c0 .817-.245 1.456-.735 1.917-.49.46-1.144.691-1.96.691-.848 0-1.508-.217-1.98-.65-.473-.434-.71-1.041-.71-1.822h1.126c0 .488.133.869.4 1.142.268.274.656.41 1.164.41.465 0 .84-.146 1.128-.44.287-.292.433-.702.436-1.23zm5.508 8.648c-.86 0-1.558-.282-2.097-.846-.54-.565-.809-1.32-.809-2.265v-.2c0-.628.12-1.19.36-1.684s.577-.88 1.008-1.16c.432-.28.9-.419 1.404-.419.824 0 1.464.271 1.921.814.457.543.686 1.32.686 2.332v.452h-4.295c.016.625.198 1.13.548 1.514.35.385.794.577 1.333.577.383 0 .707-.078.973-.234.265-.156.498-.363.697-.621l.662.516c-.531.816-1.328 1.224-2.39 1.224zm-.135-5.683c-.437 0-.804.159-1.101.477-.297.319-.48.765-.55 1.339h3.175v-.082c-.031-.55-.18-.978-.445-1.28-.266-.303-.625-.454-1.079-.454zm4.887-.774l.035.797c.485-.61 1.118-.914 1.899-.914 1.34 0 2.015.756 2.027 2.268V119h-1.084v-4.195c-.004-.457-.108-.795-.313-1.014-.205-.219-.525-.328-.958-.328-.352 0-.66.094-.926.281a1.91 1.91 0 0 0-.621.738V119h-1.084v-6.34zm7.365 3.404l-.68.71V119h-1.083v-9h1.084v5.443l.58-.697 1.974-2.086h1.319l-2.467 2.649 2.754 3.691h-1.272zm5.491 2.936h-1.084v-6.34h1.084zm-1.172-8.021c0-.176.054-.325.16-.446.108-.12.268-.181.478-.181.211 0 .372.06.48.181a.64.64 0 0 1 .165.446.62.62 0 0 1-.164.439c-.11.117-.27.176-.48.176-.211 0-.37-.059-.478-.176a.626.626 0 0 1-.161-.44zm3.931 1.681l.036.797c.484-.61 1.117-.914 1.898-.914 1.34 0 2.016.756 2.027 2.268V119H483.9v-4.195c-.003-.457-.108-.795-.313-1.014-.205-.219-.524-.328-.958-.328-.352 0-.66.094-.926.281a1.91 1.91 0 0 0-.621.738V119h-1.084v-6.34zm9.287 4.658c0-.293-.11-.52-.33-.682-.221-.162-.606-.302-1.155-.42-.549-.116-.984-.257-1.306-.421-.323-.164-.561-.36-.715-.586a1.402 1.402 0 0 1-.232-.809c0-.52.22-.959.66-1.318.439-.36 1-.539 1.684-.539.719 0 1.302.186 1.749.557.447.37.67.845.67 1.423h-1.089c0-.296-.126-.552-.378-.767-.252-.215-.57-.322-.952-.322-.394 0-.703.086-.926.257a.812.812 0 0 0-.334.674c0 .262.104.46.31.592.208.133.582.26 1.123.38.54.122.98.267 1.315.434.336.168.585.37.747.607.162.236.244.524.244.864 0 .567-.227 1.02-.68 1.362-.453.342-1.041.513-1.764.513-.508 0-.957-.09-1.348-.27a2.183 2.183 0 0 1-.916-.752 1.815 1.815 0 0 1-.332-1.046h1.084c.02.363.165.651.437.864.271.213.63.32 1.075.32.41 0 .74-.084.987-.25.249-.166.373-.387.373-.665zm10.348-.545h-3.574l-.803 2.227h-1.16l3.258-8.531h.984l3.264 8.531h-1.154zm-3.234-.925h2.9l-1.453-3.99zm5.924-.071c0-.988.228-1.774.685-2.358.457-.584 1.063-.876 1.817-.876.773 0 1.377.273 1.81.82l.053-.703h.99v6.188c0 .82-.243 1.466-.73 1.94-.486.472-1.139.708-1.96.708a3.26 3.26 0 0 1-1.341-.293c-.438-.195-.772-.463-1.002-.803l.562-.65c.465.574 1.034.861 1.705.861.528 0 .939-.148 1.234-.445.295-.297.442-.715.442-1.254v-.545c-.433.5-1.025.75-1.775.75-.742 0-1.343-.299-1.802-.896-.459-.598-.688-1.412-.688-2.444zm1.09.123c0 .715.146 1.277.439 1.685.293.408.703.612 1.23.612.684 0 1.186-.31 1.506-.931v-2.895c-.332-.605-.83-.908-1.494-.908-.527 0-.94.205-1.236.615-.297.41-.445 1.018-.445 1.822zm8.531 3.217c-.86 0-1.559-.282-2.098-.846-.539-.565-.808-1.32-.808-2.265v-.2c0-.628.12-1.19.36-1.684s.576-.88 1.008-1.16c.431-.28.9-.419 1.403-.419.824 0 1.465.271 1.922.814.457.543.685 1.32.685 2.332v.452h-4.295c.016.625.199 1.13.548 1.514.35.385.794.577 1.333.577.383 0 .707-.078.973-.234.266-.156.498-.363.697-.621l.662.516c-.53.816-1.328 1.224-2.39 1.224zm-.135-5.683c-.438 0-.805.159-1.102.477-.296.319-.48.765-.55 1.339h3.175v-.082c-.03-.55-.18-.978-.445-1.28-.266-.303-.625-.454-1.078-.454zm4.886-.774l.036.797c.484-.61 1.117-.914 1.898-.914 1.34 0 2.016.756 2.028 2.268V119h-1.084v-4.195c-.004-.457-.109-.795-.314-1.014-.205-.219-.524-.328-.958-.328-.351 0-.66.094-.926.281a1.91 1.91 0 0 0-.62.738V119h-1.085v-6.34zm7.067-1.535v1.535h1.184v.838h-1.184v3.932c0 .254.053.444.158.571.106.127.285.19.54.19.124 0 .296-.023.515-.07V119a3.142 3.142 0 0 1-.832.117c-.484 0-.85-.146-1.096-.44-.246-.292-.369-.708-.369-1.247v-3.932h-1.154v-.838h1.154v-1.535zM70.32 247.697c-.965-.277-1.667-.618-2.106-1.022a1.954 1.954 0 0 1-.66-1.497c0-.672.27-1.228.806-1.667.537-.44 1.236-.66 2.095-.66.586 0 1.108.114 1.567.34.46.227.815.54 1.067.938.252.398.378.834.378 1.307h-1.131c0-.516-.164-.921-.492-1.216-.328-.295-.791-.443-1.389-.443-.555 0-.987.122-1.298.367-.31.244-.466.583-.466 1.016 0 .348.148.642.443.882.295.24.797.46 1.506.66.709.198 1.263.418 1.664.658.4.24.697.52.89.841.194.32.29.697.29 1.131 0 .691-.27 1.245-.808 1.661-.54.416-1.26.624-2.162.624a4.01 4.01 0 0 1-1.64-.337c-.509-.224-.9-.532-1.176-.923a2.252 2.252 0 0 1-.413-1.33h1.131c0 .516.19.923.571 1.222.381.299.89.448 1.527.448.593 0 1.049-.12 1.365-.363.316-.242.475-.572.475-.99 0-.418-.147-.741-.44-.97-.293-.228-.824-.454-1.594-.677zm7.067 3.92c-.86 0-1.559-.282-2.098-.846-.539-.565-.809-1.32-.809-2.265v-.2c0-.628.12-1.19.36-1.684.241-.494.577-.88 1.009-1.16.431-.28.899-.419 1.403-.419.824 0 1.465.271 1.922.814.457.543.685 1.32.685 2.332v.452h-4.295c.016.625.199 1.13.548 1.514.35.385.794.577 1.333.577.383 0 .707-.078.973-.234.266-.156.498-.363.697-.621l.662.516c-.53.816-1.328 1.224-2.39 1.224zm-.135-5.683c-.438 0-.805.159-1.102.477-.296.319-.48.765-.55 1.339h3.175v-.082c-.03-.55-.18-.978-.445-1.28-.266-.303-.625-.454-1.078-.454zm6.926.199a3.25 3.25 0 0 0-.533-.041c-.711 0-1.194.303-1.448.908v4.5h-1.084v-6.34h1.055l.018.733c.355-.567.859-.85 1.511-.85.211 0 .371.027.48.082zm3.193 3.897l1.57-4.87h1.108l-2.274 6.34h-.826l-2.297-6.34h1.108zm4.899 1.47h-1.084v-6.34h1.084zm-1.172-8.021a.65.65 0 0 1 .16-.446c.108-.12.267-.181.478-.181.211 0 .371.06.48.181a.64.64 0 0 1 .165.446.62.62 0 0 1-.164.439c-.11.117-.27.176-.48.176-.212 0-.37-.059-.478-.176a.626.626 0 0 1-.161-.44zm5.449 7.253c.387 0 .724-.117 1.014-.351.289-.235.449-.527.48-.88h1.025c-.02.364-.144.71-.375 1.038a2.47 2.47 0 0 1-.922.785 2.663 2.663 0 0 1-1.222.293c-.863 0-1.55-.288-2.06-.864-.51-.576-.764-1.364-.764-2.364v-.182c0-.617.113-1.166.34-1.646a2.59 2.59 0 0 1 .975-1.12c.424-.265.925-.398 1.503-.398.711 0 1.302.213 1.772.639.471.425.722.978.753 1.658h-1.025a1.494 1.494 0 0 0-.466-1.01 1.45 1.45 0 0 0-1.034-.396c-.55 0-.978.198-1.28.594-.303.397-.454.97-.454 1.72v.205c0 .73.15 1.293.45 1.688.302.394.731.591 1.29.591zm6.369.885c-.86 0-1.559-.282-2.098-.846-.539-.565-.808-1.32-.808-2.265v-.2c0-.628.12-1.19.36-1.684s.576-.88 1.008-1.16c.432-.28.9-.419 1.403-.419.824 0 1.465.271 1.922.814.457.543.686 1.32.686 2.332v.452h-4.295c.015.625.198 1.13.548 1.514.35.385.794.577 1.333.577.382 0 .707-.078.972-.234.266-.156.498-.363.698-.621l.662.516c-.532.816-1.328 1.224-2.391 1.224zm-.135-5.683c-.437 0-.804.159-1.101.477-.297.319-.48.765-.551 1.339h3.176v-.082c-.032-.55-.18-.978-.446-1.28-.265-.303-.625-.454-1.078-.454zm11.713 3.339h-3.574l-.803 2.227h-1.16l3.258-8.531h.984l3.264 8.531h-1.154zm-3.234-.925h2.9l-1.453-3.99zm8.724 2.384c.387 0 .725-.117 1.014-.351.29-.235.45-.527.48-.88h1.026c-.02.364-.145.71-.375 1.038a2.47 2.47 0 0 1-.923.785 2.663 2.663 0 0 1-1.222.293c-.863 0-1.55-.288-2.06-.864-.509-.576-.764-1.364-.764-2.364v-.182c0-.617.113-1.166.34-1.646.227-.48.552-.854.976-1.12.423-.265.924-.398 1.503-.398.71 0 1.301.213 1.772.639.47.425.722.978.753 1.658h-1.025a1.494 1.494 0 0 0-.466-1.01 1.45 1.45 0 0 0-1.034-.396c-.551 0-.978.198-1.28.594-.303.397-.455.97-.455 1.72v.205c0 .73.15 1.293.451 1.688.301.394.73.591 1.29.591zm6.282 0c.386 0 .724-.117 1.013-.351.29-.235.45-.527.48-.88h1.026c-.02.364-.144.71-.375 1.038a2.47 2.47 0 0 1-.923.785 2.663 2.663 0 0 1-1.221.293c-.864 0-1.55-.288-2.06-.864-.51-.576-.765-1.364-.765-2.364v-.182c0-.617.114-1.166.34-1.646.227-.48.552-.854.976-1.12.424-.265.925-.398 1.503-.398.71 0 1.302.213 1.772.639.47.425.722.978.753 1.658h-1.025a1.494 1.494 0 0 0-.466-1.01 1.45 1.45 0 0 0-1.034-.396c-.551 0-.978.198-1.28.594-.303.397-.455.97-.455 1.72v.205c0 .73.15 1.293.452 1.688.3.394.73.591 1.289.591zm3.451-2.461c0-.62.122-1.18.366-1.675a2.732 2.732 0 0 1 1.02-1.149c.435-.27.932-.404 1.49-.404.864 0 1.562.299 2.095.896.534.598.8 1.393.8 2.385v.076c0 .618-.118 1.171-.354 1.662a2.69 2.69 0 0 1-1.014 1.145c-.44.273-.944.41-1.515.41-.859 0-1.555-.299-2.088-.896-.534-.598-.8-1.389-.8-2.373zm1.09.13c0 .703.163 1.267.489 1.693.326.426.763.638 1.31.638.55 0 .988-.215 1.312-.647.324-.432.486-1.036.486-1.814 0-.695-.165-1.258-.495-1.69a1.574 1.574 0 0 0-1.315-.647c-.535 0-.967.212-1.295.638-.328.426-.492 1.035-.492 1.828zm9.955 2.472c-.422.496-1.041.744-1.858.744-.675 0-1.19-.196-1.544-.589-.353-.392-.532-.973-.536-1.743v-4.125h1.084v4.096c0 .96.39 1.441 1.172 1.441.828 0 1.379-.308 1.652-.926v-4.61h1.084v6.339h-1.03zm3.726-5.713l.035.797c.485-.61 1.118-.914 1.899-.914 1.34 0 2.016.756 2.027 2.268v4.189h-1.084v-4.195c-.004-.457-.108-.795-.313-1.014-.205-.219-.525-.328-.958-.328-.352 0-.66.094-.926.281a1.91 1.91 0 0 0-.621.738v4.518h-1.084v-6.34zm7.067-1.535v1.535h1.183v.838h-1.183v3.932c0 .254.052.444.158.571.105.127.285.19.539.19.125 0 .297-.023.516-.07v.879a3.142 3.142 0 0 1-.832.117c-.485 0-.85-.146-1.096-.44-.246-.292-.37-.708-.37-1.247v-3.932h-1.154v-.838h1.155v-1.535z" fill="#212121"/><path d="M92.055 289.244c-.088.752-.366 1.332-.833 1.74-.467.41-1.088.614-1.863.614-.84 0-1.512-.301-2.019-.904-.506-.602-.759-1.408-.759-2.417v-.683c0-.661.118-1.242.354-1.743.236-.502.57-.887 1.003-1.155.433-.269.935-.403 1.504-.403.756 0 1.361.21 1.817.632.456.422.72 1.005.796 1.75h-.943c-.081-.566-.258-.976-.53-1.23-.271-.254-.651-.38-1.14-.38-.599 0-1.068.22-1.408.663-.34.443-.51 1.073-.51 1.89v.689c0 .771.16 1.385.483 1.84.322.456.773.684 1.352.684.521 0 .92-.118 1.2-.354.277-.236.462-.647.553-1.233zM93.271 284h.903v7.5h-.903zm2.109 4.81c0-.518.102-.983.305-1.397.204-.413.487-.732.85-.957a2.313 2.313 0 0 1 1.242-.337c.72 0 1.302.25 1.746.747.444.498.666 1.16.666 1.988v.063c0 .514-.098.976-.295 1.384a2.243 2.243 0 0 1-.845.955 2.34 2.34 0 0 1-1.262.342c-.716 0-1.296-.25-1.74-.747-.445-.498-.667-1.158-.667-1.978zm.908.107c0 .586.136 1.056.408 1.411.272.355.635.532 1.091.532.46 0 .824-.18 1.094-.54.27-.359.405-.863.405-1.51 0-.58-.137-1.05-.412-1.41a1.314 1.314 0 0 0-1.097-.539c-.446 0-.805.178-1.079.533-.273.354-.41.862-.41 1.523zm8.296 2.061c-.352.413-.868.62-1.548.62-.563 0-.992-.164-1.286-.491-.295-.327-.444-.811-.447-1.453v-3.437h.903v3.413c0 .8.326 1.201.977 1.201.69 0 1.149-.257 1.377-.771v-3.843h.903v5.283h-.86zm2.031-2.164c0-.81.192-1.462.576-1.955.385-.493.887-.74 1.51-.74.618 0 1.108.212 1.469.635V284h.903v7.5h-.83l-.044-.566c-.361.442-.864.664-1.509.664-.612 0-1.11-.251-1.496-.752-.386-.502-.579-1.156-.579-1.963zm.904.103c0 .599.123 1.068.37 1.406.248.339.59.508 1.026.508.573 0 .991-.257 1.255-.771v-2.427c-.27-.498-.685-.747-1.245-.747-.443 0-.788.17-1.035.512-.248.342-.371.848-.371 1.519zm7.641-4.526h.938v7.109h-.938zm6.665 5.254h-2.978l-.67 1.855h-.966l2.715-7.11h.82l2.72 7.11h-.962zm-2.695-.772h2.417l-1.211-3.325zm6.504-4.483l2.324 5.801 2.324-5.8h1.216v7.109h-.937v-2.769l.087-2.988-2.334 5.757h-.717l-2.33-5.742.093 2.973v2.769h-.937v-7.11z" fill="#757575"/></g></svg>